<svg id="svg" version="1.1" width="400" height="399.2920353982301" viewBox="0 0 400 399.2920353982301" xmlns="http://www.w3.org/2000/svg" xmlns:xlink="http://www.w3.org/1999/xlink"><g id="svgg"><path id="path0" d="M76.460 0.595 C 39.756 3.289,7.728 33.050,1.249 70.483 C -0.003 77.717,-0.040 81.951,0.090 203.363 C 0.226 329.204,0.184 325.700,1.619 331.917 C 9.641 366.669,33.208 390.511,67.080 398.140 L 71.327 399.097 198.761 399.208 L 326.195 399.320 330.619 398.565 C 366.359 392.467,393.399 364.589,399.442 327.611 C 400.093 323.625,400.281 78.636,399.636 73.753 C 394.586 35.493,361.835 3.373,325.133 0.687 C 321.296 0.406,80.248 0.317,76.460 0.595 M212.035 48.350 C 261.346 55.482,289.735 107.200,270.019 153.982 C 266.263 162.893,262.394 169.170,251.099 184.675 C 229.725 214.017,221.211 234.513,216.646 267.613 C 215.290 277.451,215.530 276.874,212.327 277.990 C 208.361 279.372,201.400 282.039,192.035 285.765 C 176.222 292.057,175.046 292.493,173.852 292.512 C 172.239 292.538,171.778 291.787,171.531 288.731 C 171.418 287.336,171.008 282.212,170.619 277.345 C 170.230 272.478,169.409 262.920,168.794 256.106 C 166.231 227.700,168.141 215.835,177.555 201.694 C 189.176 184.239,200.303 177.645,238.407 165.638 C 244.840 163.611,245.073 163.482,244.757 162.124 C 243.069 154.873,236.636 147.516,228.364 143.378 C 225.409 141.900,217.724 139.130,216.549 139.120 C 215.695 139.113,215.773 138.595,216.726 137.945 C 218.158 136.969,220.710 134.376,222.194 132.389 C 236.041 113.859,223.142 88.669,199.823 88.702 C 174.582 88.737,162.179 118.194,179.755 136.364 C 181.691 138.365,181.877 138.159,177.502 138.859 C 160.970 141.502,148.056 151.570,143.376 165.462 L 142.430 168.269 140.028 165.462 C 113.110 134.007,122.822 81.358,159.646 59.109 C 175.651 49.439,193.797 45.713,212.035 48.350 M214.054 294.226 L 214.867 294.991 214.867 314.518 L 214.867 334.046 213.789 336.205 C 212.532 338.719,210.899 340.271,208.158 341.557 L 206.195 342.478 193.090 342.478 L 179.986 342.478 177.588 341.298 C 171.888 338.492,171.266 336.496,171.402 321.461 L 171.504 310.104 172.431 309.178 C 173.074 308.535,179.124 305.938,192.254 300.670 C 212.338 292.612,212.336 292.612,214.054 294.226 M207.257 300.341 C 194.705 305.378,182.912 310.075,180.177 311.126 L 176.814 312.419 176.637 314.980 C 176.540 316.388,176.540 321.188,176.637 325.648 C 176.904 337.893,176.200 337.412,193.655 337.269 L 205.894 337.168 207.176 336.289 C 209.986 334.363,209.912 334.913,209.912 316.146 C 209.912 306.974,209.792 299.474,209.646 299.479 C 209.500 299.484,208.425 299.872,207.257 300.341 " stroke="none" fill="#311bf2" fill-rule="evenodd"></path><path id="path1" d="M191.150 48.291 C 168.427 51.196,149.007 63.050,137.109 81.279 C 119.558 108.170,120.957 143.119,140.487 165.626 L 142.451 167.890 142.853 166.334 C 146.260 153.158,159.859 141.966,176.135 138.943 C 177.871 138.620,179.661 138.282,180.112 138.192 C 180.891 138.036,180.840 137.926,179.128 136.053 C 159.311 114.370,180.390 81.050,208.496 89.633 C 229.014 95.899,234.686 121.058,218.997 136.213 C 217.525 137.635,216.511 138.843,216.744 138.897 C 230.876 142.217,240.909 150.151,244.622 160.944 C 245.484 163.449,245.242 163.679,239.984 165.361 C 201.259 177.751,190.716 183.610,179.812 198.797 C 168.176 215.005,166.315 225.846,169.371 259.646 C 170.074 267.434,170.940 277.774,171.294 282.624 C 172.116 293.873,171.712 293.423,178.648 290.819 C 180.949 289.955,186.894 287.636,191.858 285.665 C 196.823 283.695,203.912 280.952,207.611 279.571 C 215.753 276.530,215.050 277.182,215.741 272.035 C 220.551 236.203,229.656 213.121,249.532 186.372 C 250.834 184.619,253.081 181.593,254.525 179.646 C 269.263 159.783,275.448 144.220,276.011 125.589 C 277.430 78.667,237.567 42.357,191.150 48.291 M207.434 294.850 C 180.500 305.517,173.572 308.417,172.655 309.405 L 171.681 310.454 171.685 322.218 C 171.689 336.629,172.231 338.398,177.490 341.173 L 179.292 342.124 192.331 342.229 C 209.096 342.364,210.821 341.861,213.699 336.001 L 214.690 333.982 214.790 314.763 L 214.891 295.544 213.844 294.498 C 212.487 293.140,211.633 293.187,207.434 294.850 M210.264 315.310 C 210.261 339.040,211.584 337.345,193.051 337.345 L 180.770 337.345 179.269 336.465 C 176.404 334.787,176.257 334.076,176.366 322.443 L 176.460 312.389 192.920 305.775 C 201.973 302.137,209.580 299.150,209.823 299.138 C 210.171 299.120,210.265 302.577,210.264 315.310 " stroke="none" fill="#fbdb41" fill-rule="evenodd"></path><path id="path2" d="M373.628 23.009 C 374.587 23.982,375.451 24.779,375.549 24.779 C 375.646 24.779,374.941 23.982,373.982 23.009 C 373.023 22.035,372.159 21.239,372.062 21.239 C 371.965 21.239,372.670 22.035,373.628 23.009 M24.594 24.867 L 21.416 28.142 24.690 24.963 C 27.731 22.011,28.126 21.593,27.869 21.593 C 27.816 21.593,26.343 23.066,24.594 24.867 M0.436 73.628 C 0.436 74.310,0.509 74.588,0.598 74.248 C 0.687 73.907,0.687 73.350,0.598 73.009 C 0.509 72.668,0.436 72.947,0.436 73.628 M0.116 78.053 C 0.118 79.416,0.182 79.930,0.258 79.196 C 0.335 78.461,0.334 77.346,0.255 76.718 C 0.177 76.089,0.115 76.690,0.116 78.053 M379.624 371.062 L 378.584 372.212 379.735 371.173 C 380.807 370.204,381.048 369.912,380.774 369.912 C 380.713 369.912,380.196 370.429,379.624 371.062 M19.823 370.376 C 19.823 370.437,20.341 370.955,20.973 371.527 L 22.124 372.566 21.084 371.416 C 20.115 370.344,19.823 370.103,19.823 370.376 M21.947 372.841 C 21.947 372.894,23.181 374.129,24.690 375.584 L 27.434 378.230 24.788 375.487 C 22.330 372.939,21.947 372.582,21.947 372.841 M375.037 376.018 L 371.858 379.292 375.133 376.114 C 378.174 373.161,378.568 372.743,378.311 372.743 C 378.258 372.743,376.785 374.217,375.037 376.018 " stroke="none" fill="#0e0a60" fill-rule="evenodd"></path><path id="path3" d="M198.861 47.695 C 199.890 47.767,201.483 47.766,202.401 47.693 C 203.319 47.621,202.478 47.562,200.531 47.563 C 198.584 47.564,197.833 47.623,198.861 47.695 M192.836 48.038 C 193.276 48.123,193.913 48.119,194.252 48.031 C 194.590 47.942,194.230 47.873,193.451 47.877 C 192.673 47.881,192.396 47.953,192.836 48.038 M206.991 48.037 C 207.429 48.122,208.146 48.122,208.584 48.037 C 209.022 47.953,208.664 47.884,207.788 47.884 C 206.912 47.884,206.553 47.953,206.991 48.037 M179.646 50.265 C 179.200 50.457,179.134 50.570,179.469 50.570 C 179.761 50.570,180.319 50.433,180.708 50.265 C 181.154 50.074,181.220 49.961,180.885 49.961 C 180.593 49.961,180.035 50.098,179.646 50.265 M233.658 54.999 C 234.022 55.325,236.106 56.283,236.106 56.124 C 236.106 55.920,234.144 54.867,233.764 54.867 C 233.624 54.867,233.577 54.927,233.658 54.999 M253.805 69.204 C 255.452 70.858,256.878 72.212,256.976 72.212 C 257.073 72.212,255.806 70.858,254.159 69.204 C 252.513 67.549,251.086 66.195,250.989 66.195 C 250.892 66.195,252.159 67.549,253.805 69.204 M146.183 69.646 L 144.248 71.681 146.283 69.747 C 148.174 67.949,148.481 67.611,148.218 67.611 C 148.163 67.611,147.247 68.527,146.183 69.646 M142.810 73.363 L 141.770 74.513 142.920 73.474 C 143.993 72.504,144.234 72.212,143.960 72.212 C 143.899 72.212,143.381 72.730,142.810 73.363 M198.673 88.395 C 199.208 88.476,200.084 88.476,200.619 88.395 C 201.155 88.314,200.717 88.248,199.646 88.248 C 198.575 88.248,198.137 88.314,198.673 88.395 M186.814 91.352 C 186.084 91.737,185.487 92.131,185.487 92.228 C 185.487 92.386,188.283 91.079,188.643 90.753 C 189.050 90.384,187.987 90.732,186.814 91.352 M179.459 96.903 L 177.168 99.292 179.558 97.001 C 180.872 95.742,181.947 94.666,181.947 94.612 C 181.947 94.351,181.586 94.683,179.459 96.903 M172.783 107.296 C 172.565 107.922,172.448 108.495,172.524 108.571 C 172.600 108.647,172.840 108.197,173.058 107.571 C 173.276 106.946,173.393 106.372,173.317 106.296 C 173.241 106.220,173.001 106.670,172.783 107.296 M171.410 113.982 C 171.410 114.664,171.482 114.942,171.571 114.602 C 171.660 114.261,171.660 113.704,171.571 113.363 C 171.482 113.022,171.410 113.301,171.410 113.982 M124.703 118.761 C 124.706 119.735,124.774 120.091,124.856 119.553 C 124.937 119.015,124.935 118.218,124.851 117.783 C 124.767 117.347,124.700 117.788,124.703 118.761 M171.417 119.469 C 171.421 120.248,171.493 120.525,171.578 120.084 C 171.662 119.644,171.659 119.007,171.571 118.668 C 171.482 118.330,171.413 118.690,171.417 119.469 M227.693 119.646 C 227.693 120.327,227.766 120.606,227.855 120.265 C 227.944 119.925,227.944 119.367,227.855 119.027 C 227.766 118.686,227.693 118.965,227.693 119.646 M276.244 123.363 C 276.244 125.894,276.301 126.883,276.369 125.560 C 276.437 124.238,276.437 122.167,276.368 120.959 C 276.299 119.750,276.243 120.832,276.244 123.363 M124.711 125.487 C 124.713 126.655,124.780 127.090,124.858 126.454 C 124.937 125.818,124.935 124.862,124.855 124.330 C 124.774 123.798,124.709 124.319,124.711 125.487 M275.834 130.619 C 275.834 131.301,275.907 131.580,275.996 131.239 C 276.085 130.898,276.085 130.341,275.996 130.000 C 275.907 129.659,275.834 129.938,275.834 130.619 M179.414 136.331 C 180.487 137.475,180.808 138.029,180.476 138.161 C 180.151 138.291,180.197 138.360,180.619 138.379 C 181.595 138.423,181.364 137.964,179.558 136.268 L 177.876 134.690 179.414 136.331 M217.257 137.486 C 215.873 138.709,215.645 139.115,216.342 139.115 C 216.569 139.115,216.664 139.024,216.552 138.912 C 216.441 138.801,216.932 138.168,217.644 137.506 C 219.306 135.960,219.001 135.944,217.257 137.486 M237.345 149.735 C 238.698 151.097,239.884 152.212,239.981 152.212 C 240.078 152.212,239.052 151.097,237.699 149.735 C 236.347 148.372,235.161 147.257,235.063 147.257 C 234.966 147.257,235.993 148.372,237.345 149.735 M153.429 149.823 L 152.389 150.973 153.540 149.934 C 154.612 148.965,154.853 148.673,154.580 148.673 C 154.519 148.673,154.001 149.190,153.429 149.823 M130.645 150.619 C 130.645 150.814,130.872 151.372,131.150 151.858 C 131.429 152.345,131.656 152.584,131.656 152.389 C 131.656 152.195,131.429 151.637,131.150 151.150 C 130.872 150.664,130.645 150.425,130.645 150.619 M150.423 152.832 L 149.204 154.159 150.531 152.939 C 151.261 152.268,151.858 151.671,151.858 151.612 C 151.858 151.342,151.559 151.596,150.423 152.832 M141.239 166.903 C 141.899 167.584,142.519 168.142,142.617 168.142 C 142.714 168.142,142.253 167.584,141.593 166.903 C 140.932 166.221,140.312 165.664,140.215 165.664 C 140.118 165.664,140.578 166.221,141.239 166.903 M226.018 169.558 C 225.571 169.749,225.506 169.862,225.841 169.862 C 226.133 169.862,226.690 169.725,227.080 169.558 C 227.526 169.366,227.591 169.253,227.257 169.253 C 226.965 169.253,226.407 169.390,226.018 169.558 M205.664 177.522 C 205.177 177.800,204.938 178.028,205.133 178.028 C 205.327 178.028,205.885 177.800,206.372 177.522 C 206.858 177.244,207.097 177.016,206.903 177.016 C 206.708 177.016,206.150 177.244,205.664 177.522 M201.681 179.493 C 200.951 179.879,200.354 180.273,200.354 180.370 C 200.354 180.466,200.991 180.220,201.770 179.823 C 202.549 179.426,203.186 179.024,203.186 178.931 C 203.186 178.699,203.183 178.700,201.681 179.493 M189.713 187.638 L 187.788 189.435 189.823 187.747 C 191.691 186.198,192.052 185.841,191.749 185.841 C 191.689 185.841,190.773 186.649,189.713 187.638 M248.850 187.257 C 248.434 187.841,248.173 188.319,248.270 188.319 C 248.368 188.319,248.788 187.841,249.204 187.257 C 249.619 186.673,249.880 186.195,249.783 186.195 C 249.685 186.195,249.265 186.673,248.850 187.257 M247.080 189.735 C 246.664 190.319,246.403 190.796,246.500 190.796 C 246.598 190.796,247.018 190.319,247.434 189.735 C 247.850 189.150,248.110 188.673,248.013 188.673 C 247.915 188.673,247.496 189.150,247.080 189.735 M243.186 195.398 C 242.770 195.982,242.509 196.460,242.607 196.460 C 242.704 196.460,243.124 195.982,243.540 195.398 C 243.956 194.814,244.216 194.336,244.119 194.336 C 244.022 194.336,243.602 194.814,243.186 195.398 M238.541 202.566 C 238.310 203.004,237.889 203.761,237.607 204.248 C 237.114 205.097,237.118 205.104,237.689 204.425 C 238.394 203.586,239.385 201.770,239.137 201.770 C 239.041 201.770,238.773 202.128,238.541 202.566 M174.690 206.372 C 174.197 207.345,173.873 208.142,173.970 208.142 C 174.068 208.142,174.551 207.345,175.044 206.372 C 175.538 205.398,175.861 204.602,175.764 204.602 C 175.667 204.602,175.184 205.398,174.690 206.372 M235.752 207.434 C 235.355 208.212,235.110 208.850,235.207 208.850 C 235.304 208.850,235.709 208.212,236.106 207.434 C 236.503 206.655,236.749 206.018,236.652 206.018 C 236.554 206.018,236.150 206.655,235.752 207.434 M173.155 209.396 C 172.562 210.697,172.675 210.975,173.316 209.792 C 173.616 209.239,173.794 208.721,173.714 208.640 C 173.633 208.559,173.381 208.899,173.155 209.396 M230.329 217.893 C 229.497 219.636,229.614 219.933,230.484 218.285 C 230.879 217.537,231.139 216.862,231.062 216.785 C 230.986 216.709,230.656 217.207,230.329 217.893 M226.606 226.387 C 226.013 227.689,226.126 227.966,226.768 226.783 C 227.067 226.230,227.246 225.712,227.165 225.631 C 227.084 225.550,226.832 225.890,226.606 226.387 M167.877 228.496 C 167.881 229.274,167.953 229.551,168.038 229.111 C 168.123 228.671,168.119 228.033,168.031 227.695 C 167.942 227.357,167.873 227.717,167.877 228.496 M224.818 231.190 C 224.600 231.815,224.484 232.389,224.559 232.465 C 224.635 232.541,224.875 232.091,225.093 231.465 C 225.311 230.840,225.428 230.266,225.352 230.190 C 225.277 230.114,225.036 230.564,224.818 231.190 M167.573 235.929 C 167.574 238.655,167.629 239.723,167.697 238.303 C 167.764 236.883,167.764 234.653,167.696 233.347 C 167.628 232.042,167.573 233.204,167.573 235.929 M167.894 244.248 C 167.894 245.319,167.960 245.757,168.041 245.221 C 168.122 244.686,168.122 243.810,168.041 243.274 C 167.960 242.739,167.894 243.177,167.894 244.248 M168.231 248.673 C 168.235 249.451,168.307 249.728,168.392 249.288 C 168.477 248.848,168.473 248.210,168.385 247.872 C 168.296 247.534,168.227 247.894,168.231 248.673 M168.592 252.743 C 168.592 253.619,168.661 253.978,168.745 253.540 C 168.830 253.102,168.830 252.385,168.745 251.947 C 168.661 251.509,168.592 251.867,168.592 252.743 M168.946 256.991 C 168.946 257.867,169.015 258.226,169.099 257.788 C 169.184 257.350,169.184 256.633,169.099 256.195 C 169.015 255.757,168.946 256.115,168.946 256.991 M169.305 261.062 C 169.307 262.035,169.376 262.392,169.458 261.854 C 169.539 261.315,169.537 260.519,169.453 260.084 C 169.369 259.648,169.302 260.088,169.305 261.062 M169.654 265.133 C 169.654 266.009,169.723 266.367,169.807 265.929 C 169.892 265.491,169.892 264.774,169.807 264.336 C 169.723 263.898,169.654 264.257,169.654 265.133 M170.008 269.027 C 170.008 269.903,170.077 270.261,170.161 269.823 C 170.246 269.385,170.246 268.668,170.161 268.230 C 170.077 267.792,170.008 268.150,170.008 269.027 M170.367 273.097 C 170.369 274.071,170.438 274.427,170.519 273.889 C 170.601 273.351,170.599 272.554,170.515 272.119 C 170.431 271.684,170.364 272.124,170.367 273.097 M215.657 272.920 C 215.657 273.602,215.730 273.881,215.819 273.540 C 215.908 273.199,215.908 272.642,215.819 272.301 C 215.730 271.960,215.657 272.239,215.657 272.920 M170.721 277.345 C 170.723 278.319,170.792 278.675,170.873 278.137 C 170.955 277.599,170.953 276.802,170.869 276.367 C 170.785 275.931,170.718 276.372,170.721 277.345 M171.075 281.947 C 171.077 282.920,171.146 283.277,171.227 282.738 C 171.309 282.200,171.307 281.404,171.223 280.969 C 171.139 280.533,171.072 280.973,171.075 281.947 M171.434 287.080 C 171.434 288.150,171.500 288.588,171.581 288.053 C 171.662 287.518,171.662 286.642,171.581 286.106 C 171.500 285.571,171.434 286.009,171.434 287.080 M213.739 294.436 C 214.262 294.977,214.757 295.375,214.839 295.319 C 215.043 295.181,213.394 293.451,213.058 293.451 C 212.910 293.451,213.216 293.894,213.739 294.436 M208.850 299.498 C 208.433 299.789,208.490 299.821,209.111 299.646 L 209.904 299.424 210.000 315.818 L 210.096 332.212 210.181 315.664 C 210.269 298.437,210.274 298.500,208.850 299.498 M205.664 300.708 C 205.177 300.986,204.938 301.214,205.133 301.214 C 205.327 301.214,205.885 300.986,206.372 300.708 C 206.858 300.430,207.097 300.202,206.903 300.202 C 206.708 300.202,206.150 300.430,205.664 300.708 M186.018 303.198 C 185.133 303.625,185.103 303.674,185.841 303.493 C 186.844 303.248,187.971 302.674,187.434 302.682 C 187.239 302.684,186.602 302.917,186.018 303.198 M172.391 309.202 C 171.934 309.688,171.628 310.145,171.710 310.217 C 171.791 310.290,172.229 309.892,172.682 309.334 C 173.695 308.084,173.517 308.003,172.391 309.202 M181.770 310.278 C 180.885 310.704,180.855 310.753,181.593 310.573 C 182.596 310.328,183.723 309.753,183.186 309.761 C 182.991 309.764,182.354 309.997,181.770 310.278 M171.486 322.124 C 171.486 328.451,171.534 331.040,171.592 327.876 C 171.651 324.712,171.651 319.535,171.592 316.372 C 171.534 313.208,171.486 315.796,171.486 322.124 M176.430 312.695 C 176.328 312.960,176.296 314.115,176.358 315.261 L 176.471 317.345 176.642 314.778 C 176.815 312.202,176.774 311.799,176.430 312.695 M176.434 325.310 C 176.434 329.496,176.485 331.208,176.547 329.115 C 176.610 327.022,176.610 323.597,176.547 321.504 C 176.485 319.412,176.434 321.124,176.434 325.310 M172.037 335.428 C 172.038 335.825,173.375 338.053,173.611 338.053 C 173.705 338.053,173.439 337.456,173.021 336.726 C 172.085 335.090,172.035 335.024,172.037 335.428 M211.482 339.204 L 210.442 340.354 211.593 339.314 C 212.226 338.742,212.743 338.225,212.743 338.164 C 212.743 337.890,212.451 338.131,211.482 339.204 M186.991 342.566 C 190.252 342.624,195.588 342.624,198.850 342.566 C 202.111 342.507,199.442 342.460,192.920 342.460 C 186.398 342.460,183.730 342.507,186.991 342.566 " stroke="none" fill="#7d61af" fill-rule="evenodd"></path><path id="path4" d="M139.232 0.265 C 172.881 0.315,227.837 0.315,261.356 0.265 C 294.876 0.216,267.345 0.175,200.177 0.175 C 133.009 0.175,105.584 0.216,139.232 0.265 M75.133 0.608 C 75.668 0.689,76.544 0.689,77.080 0.608 C 77.615 0.526,77.177 0.460,76.106 0.460 C 75.035 0.460,74.597 0.526,75.133 0.608 M323.274 0.608 C 323.810 0.689,324.686 0.689,325.221 0.608 C 325.757 0.526,325.319 0.460,324.248 0.460 C 323.177 0.460,322.739 0.526,323.274 0.608 M7.845 48.688 C 7.252 49.989,7.365 50.267,8.006 49.084 C 8.306 48.531,8.485 48.013,8.404 47.932 C 8.323 47.851,8.071 48.191,7.845 48.688 M0.026 321.091 C 0.041 322.341,0.182 324.080,0.340 324.956 C 0.527 325.996,0.562 325.258,0.441 322.832 C 0.233 318.660,-0.014 317.625,0.026 321.091 M3.590 340.177 C 3.590 340.469,3.726 341.027,3.894 341.416 C 4.086 341.862,4.198 341.928,4.198 341.593 C 4.198 341.301,4.061 340.743,3.894 340.354 C 3.702 339.908,3.590 339.842,3.590 340.177 M26.903 377.456 C 26.903 377.517,27.420 378.035,28.053 378.606 L 29.204 379.646 28.164 378.496 C 27.195 377.423,26.903 377.182,26.903 377.456 " stroke="none" fill="#1c14a2" fill-rule="evenodd"></path></g></svg>