<svg id="svg" version="1.1" width="400" height="400" viewBox="0 0 400 400" xmlns="http://www.w3.org/2000/svg" xmlns:xlink="http://www.w3.org/1999/xlink"><g id="svgg"><path id="path0" d="M197.533 69.856 C 197.141 70.018,196.065 70.155,195.141 70.159 C 192.317 70.174,191.880 70.220,191.483 70.549 C 191.272 70.723,190.805 70.773,190.446 70.659 C 190.039 70.530,189.793 70.594,189.793 70.829 C 189.793 71.060,189.483 71.147,188.995 71.054 C 188.557 70.970,188.198 71.031,188.198 71.189 C 188.198 71.346,187.875 71.434,187.480 71.384 C 186.572 71.267,182.775 72.097,182.775 72.412 C 182.775 72.542,182.400 72.648,181.941 72.648 C 181.483 72.648,181.016 72.780,180.905 72.942 C 180.793 73.104,180.356 73.258,179.933 73.285 C 179.510 73.311,179.080 73.448,178.976 73.588 C 178.873 73.729,178.644 73.844,178.469 73.844 C 177.823 73.845,174.801 75.095,174.801 75.361 C 174.801 75.512,174.657 75.547,174.482 75.439 C 174.306 75.330,174.163 75.402,174.163 75.598 C 174.163 75.794,174.019 75.866,173.844 75.758 C 173.668 75.649,173.525 75.724,173.525 75.925 C 173.525 76.125,173.345 76.223,173.126 76.143 C 172.643 75.966,168.421 78.106,168.421 78.527 C 168.421 78.691,168.283 78.740,168.114 78.636 C 167.945 78.531,167.538 78.702,167.210 79.015 C 166.882 79.329,166.410 79.633,166.162 79.691 C 165.913 79.749,165.593 80.003,165.451 80.256 C 165.309 80.508,165.072 80.641,164.926 80.551 C 164.780 80.460,164.574 80.610,164.469 80.883 C 164.365 81.157,164.133 81.290,163.955 81.180 C 163.777 81.070,163.546 81.205,163.440 81.479 C 163.335 81.753,163.045 81.978,162.795 81.978 C 162.545 81.978,162.258 82.192,162.158 82.454 C 162.057 82.716,161.862 82.861,161.724 82.776 C 161.586 82.691,161.236 82.983,160.946 83.426 C 160.656 83.869,160.291 84.152,160.135 84.056 C 159.980 83.960,159.624 84.206,159.346 84.604 C 159.067 85.002,158.734 85.339,158.606 85.355 C 158.234 85.399,152.943 90.718,153.024 90.966 C 153.065 91.090,152.706 91.500,152.227 91.877 C 151.748 92.253,151.427 92.608,151.515 92.663 C 151.603 92.719,151.279 93.077,150.794 93.458 C 150.310 93.838,149.991 94.275,150.086 94.427 C 150.180 94.580,149.954 94.867,149.583 95.066 C 149.212 95.264,148.978 95.495,149.062 95.580 C 149.146 95.664,148.872 96.104,148.451 96.557 C 148.031 97.011,147.687 97.576,147.687 97.814 C 147.687 98.051,147.544 98.246,147.368 98.246 C 147.193 98.246,147.049 98.461,147.049 98.724 C 147.049 98.987,146.897 99.203,146.712 99.203 C 146.526 99.203,146.463 99.346,146.571 99.522 C 146.679 99.697,146.628 99.841,146.458 99.841 C 146.007 99.841,142.637 106.616,142.826 107.142 C 142.934 107.441,142.851 107.502,142.571 107.329 C 142.275 107.145,142.213 107.221,142.356 107.594 C 142.467 107.881,142.342 108.330,142.080 108.592 C 141.818 108.854,141.587 109.181,141.566 109.319 C 141.545 109.457,141.333 110.035,141.095 110.604 C 140.858 111.173,140.629 111.962,140.587 112.358 C 140.545 112.754,140.395 113.163,140.255 113.267 C 140.114 113.370,139.958 113.837,139.909 114.304 C 139.859 114.771,139.733 115.238,139.628 115.343 C 139.523 115.447,139.515 115.734,139.610 115.980 C 139.704 116.226,139.614 116.427,139.409 116.427 C 139.205 116.427,139.130 116.577,139.243 116.760 C 139.356 116.944,139.277 117.301,139.067 117.554 C 138.857 117.807,138.766 118.227,138.866 118.487 C 138.966 118.746,138.919 119.038,138.762 119.135 C 138.606 119.232,138.477 119.559,138.476 119.863 C 138.475 120.166,138.326 121.096,138.146 121.929 C 137.966 122.762,137.899 123.652,137.997 123.908 C 138.094 124.163,138.058 124.558,137.916 124.785 C 137.269 125.819,137.140 140.078,137.775 140.290 C 138.005 140.366,138.062 140.805,137.932 141.497 C 137.794 142.234,137.849 142.584,138.104 142.584 C 138.329 142.584,138.402 142.829,138.286 143.195 C 138.179 143.531,138.235 143.894,138.410 144.003 C 138.585 144.111,138.647 144.412,138.547 144.671 C 138.447 144.931,138.499 145.321,138.662 145.538 C 138.826 145.755,138.985 146.349,139.017 146.858 C 139.049 147.366,139.231 147.970,139.422 148.199 C 139.612 148.429,139.675 148.766,139.562 148.949 C 139.449 149.132,139.524 149.282,139.728 149.282 C 139.933 149.282,140.018 149.498,139.917 149.761 C 139.816 150.024,139.872 150.239,140.042 150.239 C 140.212 150.239,140.351 150.517,140.351 150.856 C 140.351 151.196,140.505 151.878,140.692 152.372 C 140.880 152.865,140.999 153.270,140.957 153.270 C 140.915 153.270,141.079 153.628,141.322 154.067 C 141.564 154.506,141.732 154.972,141.695 155.104 C 141.657 155.235,141.779 155.343,141.965 155.343 C 142.150 155.343,142.221 155.475,142.121 155.636 C 142.021 155.797,142.169 156.158,142.448 156.438 C 142.728 156.717,143.093 157.442,143.261 158.048 C 143.428 158.653,143.768 159.352,144.016 159.600 C 144.264 159.849,144.406 160.113,144.331 160.187 C 144.257 160.262,144.624 160.792,145.148 161.366 C 145.672 161.939,146.028 162.526,145.939 162.670 C 145.850 162.814,146.001 163.017,146.274 163.122 C 146.547 163.227,146.686 163.450,146.582 163.618 C 146.479 163.786,146.697 164.086,147.068 164.284 C 147.439 164.483,147.681 164.706,147.607 164.780 C 147.533 164.854,148.088 165.585,148.840 166.405 C 149.592 167.224,150.147 167.994,150.072 168.115 C 149.997 168.237,150.219 168.593,150.566 168.906 C 150.912 169.220,151.196 169.358,151.196 169.212 C 151.196 169.067,151.555 169.285,151.994 169.697 C 152.434 170.110,152.791 170.270,152.791 170.053 C 152.791 169.836,152.921 169.740,153.080 169.838 C 153.239 169.936,153.289 169.707,153.190 169.329 C 153.067 168.860,153.126 168.713,153.375 168.866 C 153.611 169.012,153.674 168.919,153.554 168.605 C 153.451 168.338,153.598 167.888,153.879 167.606 C 154.161 167.324,154.310 166.962,154.211 166.800 C 154.111 166.639,154.190 166.507,154.386 166.507 C 154.582 166.507,154.660 166.374,154.559 166.210 C 154.458 166.047,154.524 165.822,154.705 165.710 C 154.886 165.598,154.952 165.373,154.851 165.209 C 154.750 165.046,154.828 164.912,155.024 164.912 C 155.220 164.912,155.292 164.769,155.183 164.593 C 155.075 164.418,155.147 164.274,155.343 164.274 C 155.539 164.274,155.610 164.130,155.501 163.953 C 155.392 163.776,155.526 163.546,155.799 163.441 C 156.073 163.336,156.217 163.122,156.120 162.965 C 156.023 162.808,156.095 162.679,156.281 162.679 C 156.467 162.679,156.619 162.464,156.619 162.201 C 156.619 161.938,156.771 161.722,156.957 161.722 C 157.142 161.722,157.205 161.578,157.096 161.401 C 156.987 161.225,157.122 160.994,157.396 160.889 C 157.670 160.783,157.895 160.505,157.895 160.271 C 157.895 160.037,158.181 159.644,158.531 159.399 C 158.880 159.154,159.100 158.887,159.018 158.805 C 158.936 158.723,159.818 157.731,160.978 156.601 C 162.138 155.470,162.981 154.761,162.851 155.024 C 162.721 155.287,163.000 155.035,163.470 154.463 C 163.940 153.891,164.442 153.495,164.585 153.584 C 164.728 153.672,164.931 153.521,165.036 153.247 C 165.141 152.974,165.356 152.831,165.515 152.929 C 165.673 153.026,165.888 152.883,165.993 152.610 C 166.098 152.336,166.313 152.193,166.471 152.291 C 166.630 152.388,166.845 152.245,166.950 151.972 C 167.055 151.698,167.285 151.564,167.462 151.673 C 167.639 151.782,167.783 151.723,167.783 151.542 C 167.783 151.128,169.545 150.194,169.816 150.465 C 169.926 150.575,170.016 150.489,170.016 150.274 C 170.016 150.059,170.159 149.971,170.335 150.080 C 170.510 150.188,170.654 150.116,170.654 149.920 C 170.654 149.724,170.797 149.652,170.973 149.761 C 171.148 149.869,171.292 149.820,171.292 149.651 C 171.292 149.483,171.722 149.195,172.249 149.011 C 172.775 148.828,173.206 148.752,173.206 148.843 C 173.206 148.934,173.440 148.775,173.725 148.489 C 174.011 148.204,174.442 148.045,174.682 148.138 C 174.923 148.230,175.120 148.151,175.120 147.962 C 175.120 147.774,175.342 147.705,175.615 147.809 C 175.936 147.932,176.030 147.871,175.884 147.633 C 175.730 147.385,175.878 147.325,176.346 147.448 C 176.724 147.547,177.033 147.482,177.033 147.304 C 177.033 147.127,177.249 147.064,177.512 147.165 C 177.775 147.266,177.990 147.193,177.990 147.002 C 177.990 146.812,178.278 146.731,178.629 146.823 C 179.027 146.927,179.189 146.864,179.060 146.654 C 178.927 146.439,179.154 146.377,179.697 146.480 C 180.162 146.569,180.542 146.502,180.542 146.330 C 180.542 146.159,180.901 146.087,181.340 146.171 C 181.778 146.254,182.137 146.183,182.137 146.012 C 182.137 145.841,182.539 145.760,183.031 145.832 C 184.614 146.065,184.636 145.443,183.099 143.936 C 182.307 143.159,181.874 142.619,182.137 142.737 C 182.411 142.859,182.365 142.746,182.031 142.473 C 181.709 142.210,181.155 141.446,180.801 140.775 C 180.446 140.103,179.869 139.241,179.518 138.859 C 179.149 138.457,178.982 138.001,179.123 137.773 C 179.289 137.504,179.233 137.463,178.942 137.643 C 178.633 137.834,178.576 137.757,178.730 137.356 C 178.855 137.031,178.812 136.888,178.625 137.004 C 178.337 137.182,178.186 136.671,178.224 135.646 C 178.232 135.427,178.147 135.247,178.035 135.247 C 177.923 135.247,177.810 134.887,177.785 134.448 C 177.760 134.009,177.627 133.399,177.491 133.093 C 176.972 131.928,176.665 124.470,177.124 124.187 C 177.278 124.091,177.318 123.670,177.213 123.251 C 177.099 122.797,177.162 122.488,177.368 122.488 C 177.569 122.488,177.630 122.221,177.512 121.850 C 177.398 121.492,177.455 121.212,177.640 121.212 C 177.822 121.212,177.888 120.997,177.787 120.734 C 177.686 120.470,177.751 120.255,177.931 120.255 C 178.238 120.255,178.823 118.470,178.689 117.943 C 178.656 117.811,178.780 117.703,178.966 117.703 C 179.152 117.703,179.223 117.572,179.124 117.412 C 179.025 117.251,179.058 117.072,179.198 117.013 C 179.489 116.891,181.016 114.471,181.019 114.129 C 181.020 114.005,181.308 113.671,181.659 113.387 C 182.010 113.103,182.081 112.964,181.818 113.078 C 181.555 113.191,181.770 112.911,182.297 112.456 C 182.823 112.000,183.214 111.477,183.166 111.292 C 183.118 111.108,183.206 111.036,183.363 111.133 C 183.519 111.230,183.917 110.992,184.248 110.604 C 184.841 109.908,184.841 109.905,184.211 110.372 C 183.621 110.810,183.605 110.803,184.007 110.291 C 184.247 109.986,184.556 109.806,184.694 109.892 C 184.833 109.977,185.402 109.509,185.958 108.851 C 186.515 108.194,186.864 107.871,186.734 108.134 C 186.605 108.397,186.881 108.210,187.350 107.717 C 187.829 107.213,188.361 106.921,188.567 107.049 C 188.786 107.184,188.848 107.136,188.721 106.930 C 188.522 106.608,189.652 106.014,190.191 106.157 C 190.323 106.192,190.431 106.068,190.431 105.882 C 190.431 105.696,190.574 105.633,190.750 105.742 C 190.925 105.850,191.069 105.763,191.069 105.548 C 191.069 105.333,191.157 105.246,191.266 105.354 C 191.375 105.463,191.680 105.335,191.945 105.070 C 192.210 104.805,192.624 104.664,192.864 104.756 C 193.105 104.849,193.301 104.804,193.301 104.657 C 193.301 104.259,196.059 103.561,196.515 103.843 C 196.785 104.009,196.827 103.954,196.650 103.668 C 196.449 103.342,196.619 103.295,197.414 103.454 C 198.053 103.582,198.364 103.541,198.243 103.344 C 198.120 103.146,199.335 103.030,201.557 103.030 C 203.487 103.030,205.140 103.150,205.230 103.296 C 205.321 103.442,205.852 103.495,206.411 103.413 C 207.066 103.317,207.354 103.382,207.222 103.596 C 207.095 103.801,207.261 103.864,207.655 103.761 C 208.006 103.669,208.293 103.741,208.293 103.920 C 208.293 104.100,208.603 104.166,208.981 104.067 C 209.422 103.951,209.594 104.009,209.459 104.226 C 209.325 104.444,209.497 104.501,209.938 104.386 C 210.372 104.272,210.550 104.329,210.420 104.539 C 210.307 104.722,210.392 104.866,210.609 104.858 C 211.633 104.821,212.142 104.972,211.964 105.260 C 211.852 105.440,211.980 105.494,212.261 105.386 C 212.551 105.275,212.834 105.407,212.949 105.707 C 213.057 105.987,213.273 106.137,213.431 106.040 C 213.588 105.943,213.716 106.024,213.716 106.220 C 213.716 106.416,213.833 106.505,213.975 106.417 C 214.348 106.186,216.001 107.337,215.712 107.626 C 215.579 107.759,215.614 107.839,215.789 107.804 C 216.524 107.656,216.931 107.836,216.714 108.214 C 216.588 108.433,216.598 108.510,216.737 108.384 C 217.058 108.095,218.337 108.973,218.356 109.496 C 218.364 109.712,218.522 109.860,218.707 109.824 C 218.893 109.789,219.532 110.289,220.128 110.934 C 220.724 111.579,220.918 111.895,220.559 111.636 C 220.199 111.377,220.271 111.513,220.718 111.939 C 221.165 112.365,221.492 112.843,221.443 113.000 C 221.395 113.157,221.496 113.199,221.667 113.093 C 222.049 112.857,222.714 114.013,222.397 114.363 C 222.272 114.502,222.322 114.529,222.509 114.423 C 222.921 114.188,224.041 115.979,223.764 116.428 C 223.655 116.603,223.727 116.746,223.923 116.746 C 224.120 116.746,224.191 116.890,224.083 117.065 C 223.975 117.241,224.046 117.384,224.242 117.384 C 224.439 117.384,224.510 117.528,224.402 117.703 C 224.293 117.879,224.372 118.022,224.577 118.022 C 224.782 118.022,224.863 118.244,224.759 118.517 C 224.636 118.838,224.697 118.933,224.934 118.786 C 225.183 118.633,225.242 118.781,225.120 119.249 C 225.005 119.690,225.062 119.862,225.279 119.727 C 225.497 119.593,225.554 119.765,225.439 120.205 C 225.340 120.584,225.399 120.893,225.570 120.893 C 225.741 120.893,225.789 121.180,225.678 121.531 C 225.556 121.916,225.621 122.169,225.841 122.169 C 226.082 122.169,226.135 122.497,225.997 123.126 C 225.865 123.728,225.914 124.083,226.131 124.083 C 226.597 124.083,226.597 129.712,226.130 130.000 C 225.941 130.117,225.872 130.556,225.977 130.976 C 226.091 131.429,226.028 131.738,225.822 131.738 C 225.626 131.738,225.559 132.003,225.669 132.350 C 225.776 132.686,225.712 133.054,225.526 133.169 C 225.341 133.284,225.265 133.501,225.359 133.652 C 225.452 133.804,225.381 134.019,225.199 134.131 C 225.018 134.243,224.946 134.458,225.040 134.609 C 225.133 134.760,225.062 134.976,224.880 135.088 C 224.699 135.200,224.634 135.425,224.735 135.588 C 224.835 135.752,224.758 135.885,224.561 135.885 C 224.365 135.885,224.293 136.029,224.402 136.204 C 224.510 136.380,224.439 136.523,224.242 136.523 C 224.046 136.523,223.975 136.667,224.083 136.842 C 224.191 137.018,224.120 137.161,223.923 137.161 C 223.727 137.161,223.656 137.305,223.764 137.480 C 223.872 137.656,223.814 137.799,223.633 137.799 C 223.453 137.799,223.388 138.013,223.488 138.275 C 223.592 138.546,223.452 138.835,223.161 138.946 C 222.881 139.054,222.731 139.271,222.829 139.430 C 222.927 139.588,222.783 139.803,222.510 139.908 C 222.237 140.013,222.089 140.221,222.181 140.370 C 222.273 140.520,221.981 140.883,221.531 141.178 C 221.082 141.472,220.772 141.772,220.844 141.843 C 221.064 142.063,217.114 146.093,216.678 146.093 C 216.452 146.093,216.268 146.294,216.268 146.541 C 216.268 146.833,216.491 146.931,216.906 146.823 C 217.257 146.731,217.544 146.812,217.544 147.002 C 217.544 147.193,217.759 147.266,218.022 147.165 C 218.285 147.064,218.501 147.136,218.501 147.324 C 218.501 147.513,218.716 147.585,218.979 147.484 C 219.242 147.383,219.458 147.455,219.458 147.643 C 219.458 147.832,219.673 147.904,219.936 147.803 C 220.199 147.702,220.415 147.774,220.415 147.962 C 220.415 148.151,220.630 148.223,220.893 148.122 C 221.156 148.021,221.372 148.093,221.372 148.281 C 221.372 148.470,221.587 148.542,221.850 148.441 C 222.113 148.340,222.329 148.424,222.329 148.629 C 222.329 148.834,222.472 148.912,222.648 148.804 C 222.823 148.695,222.967 148.754,222.967 148.934 C 222.967 149.115,223.163 149.187,223.404 149.094 C 223.644 149.002,224.058 149.143,224.323 149.408 C 224.588 149.673,224.893 149.801,225.002 149.692 C 225.111 149.584,225.199 149.671,225.199 149.886 C 225.199 150.101,225.339 150.191,225.509 150.086 C 225.901 149.843,227.751 150.782,227.751 151.223 C 227.751 151.404,227.895 151.464,228.070 151.356 C 228.246 151.247,228.389 151.319,228.389 151.515 C 228.389 151.711,228.506 151.799,228.650 151.711 C 229.035 151.473,231.623 153.274,231.341 153.585 C 231.209 153.731,231.244 153.769,231.420 153.670 C 231.595 153.571,232.169 153.851,232.696 154.292 C 233.222 154.733,233.451 154.984,233.204 154.850 C 232.905 154.687,232.833 154.730,232.987 154.980 C 233.114 155.185,233.329 155.285,233.464 155.201 C 233.600 155.117,234.200 155.567,234.798 156.201 C 235.396 156.834,235.670 157.240,235.407 157.103 C 235.144 156.966,235.431 157.313,236.045 157.875 C 236.659 158.436,236.946 158.801,236.683 158.686 C 236.419 158.571,236.563 158.774,237.002 159.136 C 237.440 159.498,237.691 159.798,237.560 159.802 C 237.428 159.805,237.613 160.101,237.970 160.458 C 238.327 160.815,238.534 161.246,238.430 161.415 C 238.325 161.584,238.400 161.722,238.596 161.722 C 238.793 161.722,238.872 161.854,238.773 162.014 C 238.674 162.175,238.726 162.354,238.890 162.413 C 239.053 162.472,239.233 162.735,239.290 162.998 C 239.347 163.262,239.509 163.562,239.649 163.665 C 239.790 163.769,239.928 164.163,239.956 164.542 C 239.985 164.921,240.137 165.231,240.293 165.231 C 240.450 165.231,240.496 165.447,240.395 165.710 C 240.294 165.973,240.350 166.188,240.520 166.188 C 240.690 166.188,240.829 166.525,240.829 166.936 C 240.829 167.858,239.757 168.886,239.070 168.623 C 238.777 168.510,238.646 168.561,238.758 168.744 C 238.931 169.024,238.245 169.188,237.081 169.145 C 236.862 169.137,236.683 169.273,236.683 169.448 C 236.683 169.622,236.467 169.683,236.204 169.582 C 235.941 169.481,235.726 169.552,235.726 169.741 C 235.726 169.930,235.510 170.002,235.247 169.901 C 234.984 169.800,234.769 169.871,234.769 170.060 C 234.769 170.249,234.563 170.324,234.311 170.227 C 234.059 170.131,233.801 170.206,233.739 170.395 C 233.676 170.584,233.178 170.756,232.633 170.776 C 232.088 170.797,231.722 170.944,231.820 171.103 C 231.918 171.262,231.688 171.311,231.309 171.212 C 230.868 171.097,230.696 171.154,230.831 171.372 C 230.965 171.589,230.794 171.647,230.353 171.531 C 229.975 171.433,229.665 171.497,229.665 171.675 C 229.665 171.853,229.450 171.915,229.187 171.814 C 228.923 171.713,228.708 171.785,228.708 171.974 C 228.708 172.163,228.502 172.238,228.250 172.141 C 227.998 172.045,227.747 172.097,227.692 172.257 C 227.637 172.418,227.233 172.589,226.794 172.638 C 226.356 172.687,225.925 172.812,225.837 172.916 C 225.556 173.248,222.577 174.157,222.311 173.992 C 222.169 173.905,221.962 173.982,221.850 174.163 C 221.738 174.344,221.513 174.409,221.350 174.309 C 221.186 174.208,221.053 174.292,221.053 174.497 C 221.053 174.702,220.837 174.786,220.574 174.685 C 220.311 174.584,220.096 174.656,220.096 174.845 C 220.096 175.033,219.880 175.105,219.617 175.004 C 219.354 174.903,219.139 174.928,219.139 175.060 C 219.139 175.389,217.195 176.096,216.859 175.888 C 216.709 175.796,216.587 175.887,216.587 176.092 C 216.587 176.297,216.365 176.379,216.092 176.274 C 215.808 176.165,215.680 176.218,215.792 176.399 C 215.970 176.687,215.814 176.744,214.593 176.842 C 214.374 176.860,214.123 176.967,214.035 177.081 C 213.947 177.195,213.589 177.339,213.238 177.400 C 212.887 177.462,212.402 177.700,212.160 177.929 C 211.918 178.158,211.523 178.271,211.283 178.178 C 211.042 178.086,210.845 178.158,210.845 178.338 C 210.845 178.519,210.714 178.585,210.554 178.486 C 210.393 178.387,210.212 178.456,210.150 178.641 C 210.089 178.825,209.718 179.000,209.325 179.029 C 208.933 179.059,208.612 179.205,208.612 179.353 C 208.612 179.502,208.481 179.542,208.321 179.443 C 208.160 179.344,207.981 179.378,207.922 179.520 C 207.758 179.915,203.269 182.110,203.057 181.898 C 202.955 181.796,202.871 181.888,202.871 182.103 C 202.871 182.318,202.727 182.405,202.552 182.297 C 202.376 182.188,202.233 182.275,202.233 182.490 C 202.233 182.706,202.149 182.798,202.046 182.695 C 201.944 182.592,201.580 182.748,201.239 183.041 C 200.897 183.333,200.550 183.537,200.468 183.493 C 200.386 183.449,200.027 183.705,199.669 184.063 C 199.312 184.420,198.897 184.636,198.746 184.543 C 198.595 184.450,198.386 184.597,198.281 184.871 C 198.176 185.144,197.961 185.287,197.803 185.190 C 197.645 185.092,197.433 185.226,197.332 185.488 C 197.232 185.750,196.945 185.965,196.695 185.965 C 196.445 185.965,196.150 186.201,196.039 186.489 C 195.929 186.777,195.752 186.927,195.647 186.822 C 195.541 186.716,195.191 186.947,194.867 187.334 C 194.544 187.721,194.275 187.920,194.269 187.775 C 194.263 187.630,193.887 187.952,193.433 188.492 C 192.978 189.032,192.435 189.474,192.224 189.474 C 191.769 189.474,188.836 192.388,188.836 192.841 C 188.836 193.014,188.200 193.849,187.423 194.695 C 186.645 195.542,185.932 196.436,185.838 196.682 C 185.743 196.928,185.509 197.129,185.318 197.129 C 185.127 197.129,185.060 197.274,185.169 197.450 C 185.278 197.627,185.143 197.858,184.869 197.963 C 184.594 198.068,184.370 198.354,184.370 198.599 C 184.370 198.843,184.226 199.043,184.051 199.043 C 183.876 199.043,183.732 199.258,183.732 199.522 C 183.732 199.785,183.580 200.000,183.394 200.000 C 183.208 200.000,183.140 200.135,183.241 200.299 C 183.343 200.464,183.172 200.747,182.862 200.928 C 182.551 201.109,182.399 201.261,182.525 201.266 C 182.751 201.276,180.317 206.391,179.940 206.699 C 179.833 206.786,179.696 207.145,179.636 207.496 C 179.576 207.847,179.396 208.182,179.235 208.241 C 179.075 208.300,179.025 208.479,179.124 208.640 C 179.223 208.800,179.156 208.931,178.976 208.931 C 178.796 208.931,178.731 209.147,178.832 209.410 C 178.933 209.673,178.893 209.888,178.742 209.889 C 178.592 209.889,178.446 210.279,178.419 210.756 C 178.391 211.233,178.219 211.673,178.038 211.733 C 177.856 211.794,177.786 212.049,177.883 212.301 C 177.980 212.553,177.891 212.759,177.687 212.759 C 177.482 212.759,177.394 212.888,177.492 213.045 C 177.757 213.474,177.318 215.327,176.998 215.130 C 176.846 215.036,176.805 215.175,176.906 215.439 C 177.007 215.703,176.974 216.105,176.832 216.332 C 176.691 216.560,176.616 217.069,176.667 217.464 C 176.718 217.859,176.631 218.182,176.474 218.182 C 176.316 218.182,176.250 218.612,176.327 219.139 C 176.413 219.721,176.327 220.096,176.107 220.096 C 175.881 220.096,175.820 220.394,175.945 220.892 C 176.055 221.331,176.046 221.941,175.923 222.248 C 175.631 222.986,175.636 232.531,175.930 233.271 C 176.056 233.588,176.070 234.493,175.962 235.281 C 175.825 236.280,175.871 236.650,176.114 236.500 C 176.354 236.352,176.427 236.794,176.349 237.919 C 176.287 238.818,176.357 239.554,176.505 239.554 C 176.653 239.554,176.737 240.307,176.692 241.228 C 176.647 242.149,176.724 243.162,176.863 243.479 C 177.002 243.795,177.027 244.700,176.919 245.489 C 176.779 246.506,176.826 246.859,177.079 246.702 C 177.332 246.546,177.395 247.048,177.294 248.440 C 177.212 249.568,177.281 250.399,177.456 250.399 C 177.634 250.399,177.688 251.191,177.587 252.312 C 177.481 253.473,177.542 254.306,177.742 254.429 C 177.939 254.551,178.000 255.320,177.894 256.348 C 177.771 257.537,177.823 257.998,178.062 257.851 C 178.302 257.702,178.353 258.234,178.229 259.600 C 178.120 260.798,178.179 261.642,178.380 261.766 C 178.577 261.888,178.638 262.656,178.532 263.685 C 178.412 264.847,178.463 265.333,178.691 265.193 C 178.919 265.052,178.984 265.668,178.892 267.102 C 178.816 268.309,178.887 269.219,179.058 269.219 C 179.236 269.219,179.282 270.134,179.172 271.451 C 179.056 272.832,179.104 273.684,179.299 273.684 C 179.472 273.684,179.571 273.918,179.520 274.203 C 179.448 274.602,179.703 274.731,180.622 274.761 C 181.280 274.783,181.818 274.685,181.818 274.543 C 181.818 274.401,181.962 274.373,182.137 274.482 C 182.313 274.590,182.456 274.511,182.456 274.307 C 182.456 274.102,182.671 274.018,182.935 274.119 C 183.198 274.220,183.413 274.177,183.413 274.024 C 183.413 273.696,185.325 272.976,185.332 273.302 C 185.335 273.425,185.446 273.353,185.579 273.143 C 185.713 272.933,186.321 272.674,186.930 272.568 C 187.540 272.462,188.086 272.238,188.145 272.070 C 188.204 271.903,188.384 271.847,188.544 271.947 C 188.704 272.046,188.836 271.963,188.836 271.763 C 188.836 271.562,189.014 271.458,189.232 271.530 C 189.449 271.603,189.825 271.465,190.066 271.224 C 190.307 270.982,190.666 270.839,190.864 270.905 C 191.061 270.970,191.422 270.825,191.665 270.581 C 191.909 270.338,192.305 270.214,192.545 270.307 C 192.786 270.399,192.982 270.327,192.982 270.147 C 192.982 269.966,193.126 269.908,193.301 270.016 C 193.477 270.124,193.620 270.046,193.620 269.841 C 193.620 269.636,193.842 269.554,194.115 269.659 C 194.439 269.783,194.531 269.721,194.382 269.480 C 194.230 269.233,194.330 269.178,194.685 269.314 C 194.976 269.426,195.215 269.366,195.215 269.182 C 195.215 268.997,195.393 268.906,195.611 268.978 C 195.829 269.051,196.204 268.913,196.446 268.672 C 196.687 268.430,197.046 268.287,197.243 268.353 C 197.440 268.418,197.801 268.273,198.045 268.030 C 198.288 267.786,198.684 267.662,198.925 267.755 C 199.165 267.847,199.362 267.784,199.362 267.614 C 199.362 267.444,199.702 267.305,200.116 267.305 C 200.531 267.305,201.253 267.004,201.721 266.636 C 202.188 266.268,202.782 266.049,203.040 266.148 C 203.298 266.247,203.509 266.180,203.509 266.000 C 203.509 265.820,203.652 265.761,203.828 265.869 C 204.003 265.978,204.147 265.899,204.147 265.694 C 204.147 265.490,204.346 265.399,204.589 265.492 C 204.832 265.585,205.315 265.462,205.663 265.218 C 206.011 264.975,206.386 264.866,206.497 264.977 C 206.608 265.087,206.699 264.995,206.699 264.772 C 206.699 264.545,206.906 264.445,207.168 264.546 C 207.426 264.645,207.855 264.507,208.122 264.240 C 208.389 263.974,208.774 263.858,208.978 263.984 C 209.225 264.137,209.262 264.073,209.090 263.795 C 208.898 263.483,209.007 263.422,209.520 263.556 C 209.965 263.673,210.133 263.615,209.996 263.393 C 209.862 263.176,209.979 263.124,210.314 263.253 C 210.606 263.365,210.845 263.352,210.845 263.223 C 210.845 263.095,211.590 262.813,212.500 262.597 C 214.324 262.164,214.661 261.839,214.668 260.507 C 214.671 260.015,214.802 259.691,214.960 259.789 C 215.118 259.886,215.254 259.357,215.263 258.612 C 215.271 257.866,215.286 256.798,215.296 256.238 C 215.306 255.678,215.458 255.130,215.633 255.022 C 215.808 254.914,215.865 254.483,215.761 254.066 C 215.656 253.648,215.686 253.118,215.827 252.889 C 215.969 252.660,216.044 252.078,215.993 251.595 C 215.942 251.113,216.052 250.718,216.236 250.718 C 216.438 250.718,216.495 250.338,216.380 249.761 C 216.260 249.161,216.319 248.804,216.539 248.804 C 216.759 248.804,216.818 248.446,216.699 247.847 C 216.575 247.230,216.637 246.890,216.872 246.890 C 217.102 246.890,217.163 246.595,217.037 246.093 C 216.912 245.595,216.972 245.295,217.196 245.295 C 217.421 245.295,217.481 244.995,217.356 244.498 C 217.245 244.058,217.294 243.700,217.465 243.700 C 217.635 243.700,217.706 243.341,217.622 242.903 C 217.529 242.415,217.616 242.105,217.847 242.105 C 218.074 242.105,218.147 241.861,218.031 241.494 C 217.924 241.158,217.980 240.795,218.155 240.686 C 218.330 240.578,218.398 240.294,218.306 240.054 C 218.214 239.814,218.278 239.532,218.449 239.426 C 218.620 239.320,218.685 238.947,218.593 238.596 C 218.496 238.224,218.583 237.959,218.804 237.959 C 219.031 237.959,219.104 237.715,218.988 237.347 C 218.881 237.011,218.937 236.648,219.112 236.540 C 219.287 236.432,219.349 236.132,219.250 235.875 C 219.151 235.617,219.216 235.407,219.394 235.407 C 219.572 235.407,219.642 235.120,219.550 234.769 C 219.458 234.418,219.539 234.131,219.730 234.131 C 219.920 234.131,219.993 233.915,219.892 233.652 C 219.791 233.389,219.854 233.174,220.032 233.174 C 220.209 233.174,220.280 232.887,220.188 232.536 C 220.091 232.165,220.178 231.898,220.396 231.898 C 220.603 231.898,220.689 231.764,220.588 231.601 C 220.487 231.438,220.544 231.218,220.715 231.112 C 220.885 231.007,220.944 230.710,220.845 230.452 C 220.746 230.195,220.820 229.984,221.008 229.984 C 221.197 229.984,221.269 229.769,221.168 229.506 C 221.067 229.242,221.139 229.027,221.327 229.027 C 221.516 229.027,221.588 228.812,221.487 228.549 C 221.386 228.285,221.458 228.070,221.646 228.070 C 221.835 228.070,221.907 227.855,221.806 227.592 C 221.705 227.329,221.777 227.113,221.965 227.113 C 222.154 227.113,222.226 226.898,222.125 226.635 C 222.024 226.372,222.096 226.156,222.284 226.156 C 222.473 226.156,222.552 225.959,222.460 225.719 C 222.367 225.478,222.491 225.082,222.735 224.839 C 222.978 224.595,223.118 224.218,223.045 224.000 C 222.973 223.783,223.077 223.604,223.278 223.604 C 223.478 223.604,223.560 223.471,223.459 223.308 C 223.358 223.144,223.423 222.919,223.604 222.807 C 223.786 222.695,223.851 222.470,223.750 222.307 C 223.649 222.143,223.714 222.010,223.895 222.010 C 224.075 222.010,224.140 221.794,224.039 221.531 C 223.938 221.268,224.023 221.053,224.227 221.053 C 224.432 221.053,224.510 220.909,224.402 220.734 C 224.293 220.558,224.365 220.415,224.561 220.415 C 224.758 220.415,224.829 220.271,224.721 220.096 C 224.612 219.920,224.671 219.777,224.852 219.777 C 225.032 219.777,225.097 219.561,224.996 219.298 C 224.895 219.035,224.979 218.820,225.184 218.820 C 225.389 218.820,225.467 218.676,225.359 218.501 C 225.250 218.325,225.338 218.182,225.553 218.182 C 225.768 218.182,225.860 218.098,225.757 217.995 C 225.490 217.728,226.158 215.949,226.525 215.949 C 226.694 215.949,226.743 215.805,226.635 215.630 C 226.526 215.455,226.598 215.311,226.794 215.311 C 226.990 215.311,227.062 215.167,226.954 214.992 C 226.845 214.817,226.917 214.673,227.113 214.673 C 227.309 214.673,227.381 214.530,227.273 214.354 C 227.164 214.179,227.236 214.035,227.432 214.035 C 227.628 214.035,227.700 213.892,227.592 213.716 C 227.483 213.541,227.555 213.397,227.751 213.397 C 227.947 213.397,228.026 213.265,227.926 213.104 C 227.732 212.789,229.592 209.163,230.040 208.984 C 230.187 208.925,230.226 208.746,230.127 208.585 C 230.028 208.425,230.107 208.293,230.303 208.293 C 230.499 208.293,230.571 208.150,230.463 207.974 C 230.354 207.799,230.441 207.656,230.656 207.656 C 230.871 207.656,230.957 207.566,230.847 207.456 C 230.577 207.185,231.511 205.423,231.925 205.423 C 232.106 205.423,232.166 205.279,232.057 205.104 C 231.949 204.928,232.021 204.785,232.217 204.785 C 232.413 204.785,232.488 204.646,232.384 204.477 C 232.279 204.308,232.474 203.890,232.817 203.547 C 233.159 203.204,233.356 202.840,233.254 202.738 C 233.151 202.636,233.243 202.552,233.458 202.552 C 233.674 202.552,233.760 202.407,233.651 202.231 C 233.542 202.054,233.676 201.824,233.949 201.719 C 234.223 201.614,234.367 201.400,234.270 201.242 C 234.173 201.085,234.245 200.957,234.431 200.957 C 234.617 200.957,234.769 200.742,234.769 200.478 C 234.769 200.215,234.921 200.000,235.107 200.000 C 235.292 200.000,235.355 199.855,235.246 199.679 C 235.137 199.502,235.271 199.272,235.544 199.167 C 235.817 199.062,235.962 198.848,235.865 198.691 C 235.767 198.534,235.840 198.405,236.026 198.405 C 236.212 198.405,236.364 198.190,236.364 197.927 C 236.364 197.663,236.516 197.448,236.701 197.448 C 236.887 197.448,236.950 197.304,236.841 197.127 C 236.732 196.950,236.866 196.720,237.139 196.615 C 237.412 196.510,237.556 196.295,237.458 196.137 C 237.360 195.978,237.504 195.763,237.777 195.658 C 238.050 195.553,238.194 195.338,238.096 195.180 C 237.998 195.021,238.142 194.806,238.415 194.701 C 238.688 194.596,238.832 194.381,238.734 194.223 C 238.636 194.064,238.780 193.849,239.053 193.744 C 239.326 193.639,239.475 193.432,239.383 193.284 C 239.292 193.136,239.506 192.859,239.860 192.670 C 240.214 192.480,240.470 192.196,240.427 192.039 C 240.385 191.881,240.638 191.515,240.989 191.227 C 241.340 190.938,241.411 190.797,241.148 190.913 C 240.885 191.029,241.029 190.828,241.467 190.465 C 241.906 190.103,242.125 189.804,241.955 189.800 C 241.784 189.796,241.966 189.568,242.359 189.292 C 242.751 189.017,242.995 188.666,242.899 188.511 C 242.804 188.356,243.020 188.072,243.381 187.879 C 243.742 187.686,243.960 187.404,243.867 187.253 C 243.773 187.101,244.092 186.667,244.576 186.288 C 245.059 185.909,245.239 185.691,244.976 185.805 C 244.713 185.918,244.928 185.626,245.455 185.156 C 245.981 184.685,246.196 184.403,245.933 184.530 C 245.670 184.656,245.819 184.420,246.264 184.006 C 247.526 182.833,248.696 181.371,248.166 181.631 C 247.903 181.760,247.974 181.633,248.325 181.350 C 248.676 181.066,248.963 180.703,248.963 180.542 C 248.963 180.382,249.190 180.065,249.466 179.838 C 250.288 179.164,251.991 176.818,251.798 176.625 C 251.700 176.527,251.923 176.285,252.294 176.086 C 252.665 175.888,252.893 175.604,252.802 175.456 C 252.710 175.308,252.851 175.104,253.115 175.002 C 253.379 174.901,253.557 174.704,253.512 174.564 C 253.466 174.424,253.747 173.968,254.136 173.550 C 254.524 173.132,254.776 172.683,254.696 172.553 C 254.615 172.422,254.764 172.233,255.026 172.133 C 255.288 172.032,255.502 171.730,255.502 171.461 C 255.502 171.193,255.654 170.973,255.840 170.973 C 256.026 170.973,256.095 170.838,255.993 170.674 C 255.891 170.509,255.998 170.258,256.230 170.115 C 256.756 169.793,258.773 166.509,258.450 166.502 C 258.320 166.500,258.375 166.392,258.571 166.263 C 259.044 165.953,261.005 162.043,260.690 162.037 C 260.556 162.034,260.636 161.912,260.867 161.765 C 261.097 161.619,261.327 161.298,261.377 161.053 C 261.427 160.807,261.851 159.771,262.318 158.751 C 262.786 157.731,263.216 156.654,263.275 156.359 C 263.334 156.063,263.528 155.463,263.707 155.024 C 263.885 154.585,263.963 154.047,263.879 153.828 C 263.796 153.608,263.875 153.429,264.055 153.429 C 264.333 153.429,264.791 152.182,264.934 151.037 C 264.956 150.861,265.063 150.502,265.173 150.239 C 265.282 149.976,265.415 149.402,265.469 148.963 C 265.522 148.525,265.682 147.981,265.824 147.755 C 265.966 147.528,266.082 146.703,266.082 145.920 C 266.082 145.138,266.213 144.498,266.374 144.498 C 266.535 144.498,266.656 144.031,266.643 143.461 C 266.630 142.891,266.756 141.707,266.925 140.829 C 267.393 138.386,267.214 124.902,266.705 124.289 C 266.480 124.017,266.384 123.513,266.494 123.168 C 266.603 122.824,266.566 122.464,266.411 122.368 C 266.257 122.272,266.120 121.523,266.108 120.703 C 266.095 119.882,265.959 119.123,265.804 119.015 C 265.650 118.908,265.492 118.389,265.455 117.863 C 265.378 116.784,264.492 113.898,264.075 113.368 C 263.925 113.176,263.896 112.925,264.011 112.810 C 264.127 112.694,264.038 112.600,263.815 112.600 C 263.585 112.600,263.488 112.392,263.592 112.121 C 263.693 111.858,263.621 111.643,263.433 111.643 C 263.244 111.643,263.172 111.427,263.273 111.164 C 263.374 110.901,263.302 110.686,263.114 110.686 C 262.925 110.686,262.853 110.470,262.954 110.207 C 263.055 109.944,262.990 109.729,262.810 109.729 C 262.630 109.729,262.559 109.605,262.652 109.455 C 262.855 109.127,260.499 104.156,259.992 103.843 C 259.798 103.723,259.721 103.491,259.822 103.327 C 259.923 103.164,259.845 103.030,259.649 103.030 C 259.453 103.030,259.368 102.909,259.460 102.760 C 259.552 102.611,259.381 102.210,259.080 101.870 C 258.779 101.530,258.486 101.041,258.429 100.785 C 258.372 100.529,258.193 100.271,258.030 100.213 C 257.868 100.154,257.735 99.903,257.735 99.654 C 257.735 99.406,257.583 99.203,257.397 99.203 C 257.212 99.203,257.139 99.074,257.236 98.917 C 257.333 98.760,257.189 98.546,256.916 98.441 C 256.642 98.336,256.509 98.105,256.619 97.927 C 256.729 97.749,256.594 97.517,256.320 97.412 C 256.046 97.307,255.821 97.020,255.821 96.776 C 255.821 96.532,255.678 96.332,255.502 96.332 C 255.327 96.332,255.183 96.132,255.183 95.887 C 255.183 95.643,254.968 95.360,254.705 95.259 C 254.442 95.158,254.226 94.848,254.226 94.569 C 254.226 94.290,254.119 94.127,253.987 94.207 C 253.856 94.287,253.472 93.984,253.135 93.535 C 252.748 93.018,252.689 92.806,252.976 92.957 C 253.225 93.088,252.981 92.789,252.434 92.292 C 251.886 91.794,251.349 91.127,251.240 90.809 C 251.130 90.491,250.893 90.322,250.712 90.434 C 250.531 90.546,250.414 90.519,250.453 90.375 C 250.492 90.230,249.311 88.900,247.829 87.419 C 246.348 85.938,245.331 85.005,245.570 85.346 C 245.809 85.686,245.475 85.391,244.829 84.689 C 244.183 83.987,243.509 83.413,243.332 83.413 C 243.156 83.413,242.807 83.134,242.558 82.794 C 242.309 82.453,242.101 82.310,242.095 82.475 C 242.090 82.640,241.868 82.488,241.603 82.137 C 241.338 81.786,241.019 81.487,240.895 81.472 C 240.220 81.389,239.584 80.910,239.764 80.619 C 239.882 80.427,239.818 80.378,239.614 80.505 C 239.418 80.626,238.965 80.433,238.608 80.075 C 238.251 79.718,237.954 79.533,237.948 79.665 C 237.943 79.797,237.727 79.626,237.470 79.285 C 237.212 78.945,237.002 78.792,237.002 78.947 C 237.002 79.101,236.706 78.910,236.345 78.522 C 235.983 78.134,235.553 77.900,235.388 78.002 C 235.223 78.104,235.088 78.062,235.088 77.909 C 235.088 77.606,232.846 76.404,232.456 76.498 C 232.325 76.529,232.217 76.403,232.217 76.217 C 232.217 76.031,232.073 75.968,231.898 76.077 C 231.722 76.185,231.579 76.152,231.579 76.004 C 231.579 75.855,231.269 75.710,230.890 75.682 C 230.511 75.653,230.102 75.470,229.981 75.274 C 229.860 75.078,229.560 74.887,229.314 74.850 C 229.069 74.813,228.688 74.671,228.469 74.534 C 228.250 74.397,228.068 74.401,228.065 74.543 C 228.063 74.685,227.949 74.625,227.812 74.410 C 227.676 74.195,227.283 73.973,226.940 73.916 C 226.597 73.859,226.012 73.645,225.640 73.441 C 225.268 73.236,224.866 73.167,224.745 73.287 C 224.625 73.408,224.404 73.307,224.253 73.064 C 224.103 72.820,223.536 72.621,222.995 72.621 C 222.453 72.621,222.010 72.493,222.010 72.336 C 222.010 72.180,221.860 72.144,221.677 72.257 C 221.493 72.371,221.157 72.309,220.930 72.120 C 220.702 71.931,220.062 71.726,219.507 71.666 C 218.952 71.605,218.413 71.470,218.309 71.366 C 218.205 71.262,217.933 71.248,217.704 71.336 C 217.476 71.423,217.198 71.346,217.085 71.165 C 216.973 70.983,216.457 70.919,215.937 71.023 C 215.350 71.140,214.992 71.080,214.992 70.863 C 214.992 70.671,214.777 70.597,214.514 70.698 C 214.250 70.799,213.784 70.772,213.477 70.638 C 213.170 70.504,212.416 70.351,211.802 70.297 C 211.188 70.243,209.896 70.118,208.931 70.021 C 205.483 69.671,198.233 69.566,197.533 69.856 M209.670 277.016 C 208.825 277.357,208.042 277.770,207.930 277.934 C 207.818 278.098,207.545 278.119,207.323 277.982 C 207.041 277.808,206.998 277.860,207.180 278.155 C 207.370 278.462,207.296 278.522,206.910 278.374 C 206.618 278.261,206.380 278.324,206.380 278.513 C 206.380 278.702,206.157 278.771,205.885 278.666 C 205.561 278.542,205.469 278.604,205.618 278.846 C 205.767 279.087,205.675 279.149,205.352 279.026 C 205.080 278.921,204.573 279.035,204.225 279.279 C 203.877 279.523,203.502 279.632,203.391 279.521 C 203.280 279.410,203.190 279.482,203.190 279.682 C 203.190 279.888,202.962 279.956,202.659 279.840 C 202.318 279.709,202.206 279.762,202.345 279.987 C 202.606 280.409,201.437 280.839,200.911 280.514 C 200.663 280.360,200.626 280.424,200.800 280.707 C 200.990 281.013,200.916 281.073,200.531 280.925 C 200.239 280.813,200.000 280.869,200.000 281.050 C 200.000 281.230,199.856 281.289,199.681 281.180 C 199.506 281.072,199.362 281.150,199.362 281.355 C 199.362 281.560,199.147 281.644,198.884 281.543 C 198.620 281.442,198.405 281.507,198.405 281.688 C 198.405 281.868,198.262 281.927,198.086 281.818 C 197.911 281.710,197.767 281.788,197.767 281.993 C 197.767 282.198,197.556 282.284,197.298 282.185 C 197.040 282.086,196.610 282.223,196.343 282.490 C 196.077 282.757,195.714 282.886,195.537 282.777 C 195.360 282.667,195.215 282.738,195.215 282.935 C 195.215 283.131,195.072 283.203,194.896 283.094 C 194.721 282.986,194.577 283.064,194.577 283.269 C 194.577 283.473,194.362 283.558,194.099 283.457 C 193.836 283.356,193.620 283.421,193.620 283.601 C 193.620 283.782,193.477 283.840,193.301 283.732 C 193.126 283.624,192.982 283.695,192.982 283.892 C 192.982 284.088,192.839 284.159,192.663 284.051 C 192.488 283.943,192.344 284.012,192.344 284.206 C 192.344 284.399,192.165 284.534,191.946 284.506 C 190.969 284.379,190.404 284.548,190.624 284.903 C 190.779 285.154,190.680 285.209,190.323 285.072 C 190.031 284.960,189.793 285.023,189.793 285.212 C 189.793 285.400,189.577 285.472,189.314 285.371 C 189.051 285.270,188.836 285.335,188.836 285.515 C 188.836 285.696,188.692 285.754,188.517 285.646 C 188.341 285.538,188.198 285.596,188.198 285.777 C 188.198 285.957,187.982 286.022,187.719 285.921 C 187.456 285.820,187.241 285.905,187.241 286.109 C 187.241 286.314,187.097 286.392,186.922 286.284 C 186.746 286.175,186.603 286.254,186.603 286.459 C 186.603 286.664,186.381 286.745,186.108 286.641 C 185.784 286.517,185.692 286.579,185.841 286.820 C 185.994 287.067,185.893 287.122,185.539 286.986 C 185.246 286.874,185.008 286.937,185.008 287.125 C 185.008 287.314,184.785 287.383,184.513 287.279 C 184.229 287.170,184.101 287.223,184.213 287.404 C 184.391 287.692,183.882 287.842,182.858 287.806 C 182.641 287.798,182.557 287.943,182.671 288.128 C 182.801 288.339,182.680 288.389,182.349 288.262 C 182.057 288.150,181.818 288.212,181.818 288.401 C 181.818 288.590,181.603 288.662,181.340 288.561 C 181.077 288.460,180.861 288.540,180.861 288.739 C 180.861 288.939,180.767 289.007,180.651 288.892 C 179.787 288.027,179.620 289.586,179.595 298.793 C 179.580 303.979,179.492 308.346,179.399 308.497 C 179.305 308.648,179.396 308.772,179.601 308.772 C 179.805 308.772,179.890 308.987,179.789 309.250 C 179.688 309.514,179.753 309.729,179.933 309.729 C 180.113 309.729,180.172 309.872,180.064 310.048 C 179.955 310.223,180.027 310.367,180.223 310.367 C 180.419 310.367,180.500 310.495,180.403 310.652 C 180.306 310.809,180.451 311.024,180.724 311.129 C 181.002 311.235,181.120 311.483,180.992 311.690 C 180.857 311.907,180.901 311.975,181.099 311.853 C 181.284 311.738,181.866 312.136,182.394 312.737 C 182.921 313.338,183.438 313.744,183.543 313.640 C 183.647 313.536,183.732 313.626,183.732 313.841 C 183.732 314.056,183.876 314.144,184.051 314.035 C 184.226 313.927,184.370 313.998,184.370 314.195 C 184.370 314.391,184.514 314.462,184.689 314.354 C 184.864 314.246,185.008 314.296,185.008 314.465 C 185.008 314.634,185.318 314.692,185.696 314.593 C 186.074 314.494,186.303 314.543,186.205 314.703 C 186.099 314.874,190.434 314.992,196.810 314.992 C 202.742 314.992,207.429 314.873,207.226 314.728 C 207.010 314.573,207.221 314.522,207.735 314.604 C 208.218 314.681,208.612 314.605,208.612 314.435 C 208.612 314.265,208.828 314.209,209.091 314.310 C 209.354 314.411,209.569 314.346,209.569 314.166 C 209.569 313.985,209.713 313.927,209.888 314.035 C 210.064 314.144,210.207 314.097,210.207 313.932 C 210.207 313.766,210.849 313.148,211.633 312.557 C 212.417 311.967,213.063 311.365,213.068 311.221 C 213.074 311.077,213.295 310.743,213.560 310.478 C 213.824 310.213,213.959 309.864,213.860 309.703 C 213.760 309.542,213.846 309.410,214.050 309.410 C 214.255 309.410,214.345 309.209,214.251 308.963 C 214.156 308.717,214.149 308.445,214.235 308.359 C 214.646 307.949,214.507 277.517,214.095 277.358 C 213.864 277.270,213.765 277.053,213.874 276.876 C 213.983 276.700,213.957 276.545,213.815 276.532 C 212.023 276.372,210.956 276.496,209.670 277.016 M211.483 293.295 C 211.483 307.182,211.437 307.621,209.729 309.860 C 208.834 311.033,207.285 311.845,206.669 311.465 C 206.422 311.312,206.364 311.359,206.509 311.593 C 206.679 311.869,204.314 311.962,197.148 311.962 C 190.565 311.962,187.560 311.855,187.560 311.621 C 187.560 311.426,187.288 311.367,186.922 311.483 C 186.564 311.597,186.284 311.541,186.284 311.355 C 186.284 311.174,186.045 311.116,185.753 311.228 C 185.399 311.365,185.298 311.309,185.451 311.063 C 185.593 310.833,185.516 310.756,185.248 310.858 C 184.859 311.008,183.520 309.904,183.404 309.337 C 183.212 308.392,182.989 307.815,182.818 307.815 C 182.348 307.816,182.782 291.814,183.264 291.331 C 183.522 291.074,183.732 290.956,183.732 291.069 C 183.732 291.181,183.966 291.040,184.252 290.754 C 184.537 290.468,184.968 290.310,185.209 290.402 C 185.449 290.495,185.646 290.423,185.646 290.242 C 185.646 290.062,185.789 290.003,185.965 290.112 C 186.140 290.220,186.284 290.141,186.284 289.937 C 186.284 289.732,186.506 289.650,186.779 289.755 C 187.063 289.864,187.191 289.810,187.079 289.630 C 186.901 289.342,187.410 289.191,188.434 289.228 C 188.651 289.236,188.750 289.115,188.654 288.959 C 188.494 288.701,188.659 288.646,189.872 288.549 C 190.092 288.531,190.469 288.329,190.711 288.100 C 190.953 287.870,191.348 287.758,191.588 287.850 C 191.829 287.943,192.026 287.884,192.026 287.719 C 192.026 287.555,192.241 287.503,192.504 287.604 C 192.767 287.705,192.982 287.620,192.982 287.416 C 192.982 287.211,193.126 287.132,193.301 287.241 C 193.477 287.349,193.620 287.271,193.620 287.066 C 193.620 286.861,193.842 286.779,194.115 286.884 C 194.439 287.008,194.531 286.946,194.382 286.704 C 194.230 286.458,194.330 286.403,194.685 286.539 C 194.977 286.651,195.215 286.588,195.215 286.399 C 195.215 286.211,195.431 286.139,195.694 286.240 C 195.957 286.341,196.172 286.276,196.172 286.096 C 196.172 285.915,196.316 285.856,196.491 285.965 C 196.667 286.073,196.810 285.998,196.810 285.798 C 196.810 285.597,196.988 285.493,197.206 285.565 C 197.424 285.638,197.801 285.498,198.045 285.254 C 198.288 285.011,198.692 284.890,198.941 284.986 C 199.193 285.082,199.308 285.020,199.200 284.845 C 199.023 284.557,199.531 284.406,200.555 284.443 C 200.772 284.451,200.871 284.330,200.775 284.175 C 200.615 283.915,201.157 283.770,202.150 283.805 C 202.367 283.813,202.466 283.692,202.370 283.537 C 202.209 283.277,202.754 283.131,203.748 283.168 C 203.967 283.176,204.147 283.040,204.147 282.865 C 204.147 282.690,204.369 282.633,204.642 282.737 C 204.965 282.861,205.058 282.799,204.908 282.558 C 204.756 282.311,204.856 282.256,205.211 282.392 C 205.503 282.504,205.742 282.448,205.742 282.268 C 205.742 282.088,205.885 282.029,206.061 282.137 C 206.236 282.246,206.380 282.174,206.380 281.978 C 206.380 281.782,206.524 281.710,206.701 281.820 C 206.878 281.929,207.255 281.786,207.540 281.501 C 207.824 281.217,208.254 281.060,208.494 281.152 C 208.735 281.244,208.931 281.165,208.931 280.977 C 208.931 280.788,209.154 280.719,209.426 280.823 C 209.699 280.928,209.841 280.882,209.742 280.722 C 209.538 280.394,210.476 280.110,211.085 280.316 C 211.395 280.421,211.483 283.304,211.483 293.295 " stroke="none" fill="#fbdc44" fill-rule="evenodd"></path><path id="path1" d="M208.772 281.599 C 208.070 281.883,202.041 284.292,195.375 286.953 L 183.254 291.791 183.168 299.748 C 183.042 311.571,182.350 311.004,196.894 311.004 C 207.464 311.005,207.526 310.998,209.201 309.569 C 210.843 308.169,210.845 308.151,210.845 294.115 C 210.845 283.836,210.760 281.027,210.447 281.052 C 210.227 281.069,209.474 281.315,208.772 281.599 M210.526 281.818 C 210.526 282.081,210.311 282.297,210.048 282.297 C 209.550 282.297,209.415 281.919,209.782 281.552 C 210.149 281.185,210.526 281.320,210.526 281.818 " stroke="none" fill="#2a13fa" fill-rule="evenodd"></path><path id="path2" d="M267.400 133.333 C 267.400 134.298,267.460 134.693,267.533 134.211 C 267.606 133.728,267.606 132.939,267.533 132.456 C 267.460 131.974,267.400 132.368,267.400 133.333 M179.028 291.707 C 179.031 292.408,179.097 292.658,179.173 292.261 C 179.249 291.864,179.246 291.290,179.167 290.985 C 179.087 290.680,179.024 291.005,179.028 291.707 M179.021 295.694 C 179.021 296.308,179.087 296.559,179.167 296.252 C 179.247 295.945,179.247 295.443,179.167 295.136 C 179.087 294.829,179.021 295.080,179.021 295.694 M179.021 306.539 C 179.021 307.153,179.087 307.404,179.167 307.097 C 179.247 306.790,179.247 306.288,179.167 305.981 C 179.087 305.674,179.021 305.925,179.021 306.539 M192.284 311.562 C 194.971 311.616,199.277 311.616,201.854 311.562 C 204.431 311.509,202.233 311.465,196.970 311.465 C 191.707 311.465,189.598 311.509,192.284 311.562 " stroke="none" fill="#d5b445" fill-rule="evenodd"></path><path id="path3" d="M209.654 281.694 C 209.629 282.026,209.815 282.297,210.068 282.297 C 210.639 282.297,210.675 281.465,210.113 281.249 C 209.872 281.157,209.681 281.341,209.654 281.694 M191.946 311.243 C 194.621 311.297,198.999 311.297,201.675 311.243 C 204.350 311.190,202.161 311.146,196.810 311.146 C 191.459 311.146,189.270 311.190,191.946 311.243 " stroke="none" fill="#4434d4" fill-rule="evenodd"></path><path id="path4" d="M195.614 70.076 C 195.921 70.157,196.423 70.157,196.730 70.076 C 197.037 69.996,196.786 69.930,196.172 69.930 C 195.558 69.930,195.307 69.996,195.614 70.076 M207.898 70.082 C 208.295 70.158,208.869 70.155,209.174 70.076 C 209.479 69.996,209.155 69.933,208.453 69.937 C 207.751 69.940,207.502 70.006,207.898 70.082 M238.278 79.844 C 238.278 79.918,238.888 80.381,239.633 80.873 C 240.379 81.365,240.820 81.563,240.615 81.314 C 240.219 80.835,238.278 79.614,238.278 79.844 M155.811 87.799 L 153.907 89.793 155.901 87.889 C 157.753 86.120,158.041 85.805,157.805 85.805 C 157.756 85.805,156.859 86.703,155.811 87.799 M247.847 87.560 C 248.800 88.525,249.651 89.314,249.739 89.314 C 249.827 89.314,249.119 88.525,248.166 87.560 C 247.213 86.595,246.362 85.805,246.274 85.805 C 246.186 85.805,246.894 86.595,247.847 87.560 M199.761 103.266 C 200.770 103.329,202.420 103.329,203.429 103.266 C 204.438 103.203,203.612 103.151,201.595 103.151 C 199.577 103.151,198.752 103.203,199.761 103.266 M194.896 103.974 C 192.579 104.748,193.225 104.764,195.853 103.999 C 196.994 103.667,197.640 103.393,197.289 103.391 C 196.938 103.390,195.861 103.652,194.896 103.974 M205.768 103.466 C 205.841 103.531,206.475 103.671,207.177 103.778 C 208.066 103.913,208.260 103.885,207.815 103.683 C 207.203 103.406,205.494 103.225,205.768 103.466 M208.931 104.214 C 209.195 104.311,210.267 104.733,211.314 105.151 C 212.361 105.570,213.079 105.777,212.909 105.611 C 212.511 105.222,209.347 103.979,208.840 104.012 C 208.624 104.026,208.665 104.116,208.931 104.214 M188.596 106.720 C 187.851 107.167,187.241 107.608,187.241 107.700 C 187.241 107.871,189.393 106.649,189.936 106.169 C 190.484 105.684,189.974 105.894,188.596 106.720 M214.035 106.316 C 214.035 106.389,214.789 106.949,215.710 107.561 C 216.631 108.172,218.246 109.441,219.298 110.380 C 220.949 111.852,221.037 111.899,219.936 110.718 C 218.537 109.218,214.035 105.859,214.035 106.316 M222.358 114.222 C 223.131 115.378,223.818 116.280,223.885 116.228 C 224.063 116.087,222.058 113.037,221.463 112.544 C 221.182 112.312,221.585 113.067,222.358 114.222 M224.612 118.182 C 224.611 118.357,224.803 119.003,225.040 119.617 C 225.276 120.231,225.474 120.518,225.480 120.255 C 225.485 119.992,225.292 119.346,225.051 118.820 C 224.810 118.293,224.612 118.006,224.612 118.182 M226.271 126.954 C 226.271 128.620,226.325 129.302,226.391 128.469 C 226.456 127.636,226.456 126.272,226.391 125.439 C 226.325 124.605,226.271 125.287,226.271 126.954 M178.151 136.204 C 178.438 137.160,179.229 138.756,179.416 138.756 C 179.562 138.756,178.324 135.824,178.069 135.566 C 177.982 135.478,178.019 135.766,178.151 136.204 M267.066 136.683 C 267.070 137.384,267.135 137.634,267.211 137.237 C 267.288 136.840,267.285 136.266,267.205 135.961 C 267.125 135.656,267.063 135.981,267.066 136.683 M182.935 143.860 C 183.620 144.561,184.252 145.136,184.340 145.136 C 184.428 145.136,183.939 144.561,183.254 143.860 C 182.568 143.158,181.936 142.584,181.848 142.584 C 181.760 142.584,182.249 143.158,182.935 143.860 M217.619 145.145 C 217.046 145.666,216.696 146.093,216.841 146.093 C 216.987 146.093,217.518 145.662,218.022 145.136 C 219.195 143.912,218.968 143.917,217.619 145.145 M178.469 146.730 C 177.656 147.080,178.495 147.080,179.585 146.730 C 180.226 146.525,180.258 146.473,179.745 146.466 C 179.394 146.461,178.820 146.580,178.469 146.730 M225.545 150.039 C 225.873 150.333,227.751 151.196,227.751 151.053 C 227.751 150.869,225.983 149.920,225.641 149.920 C 225.515 149.920,225.472 149.974,225.545 150.039 M168.660 150.741 C 167.468 151.388,167.540 151.657,168.740 151.037 C 169.266 150.765,169.697 150.474,169.697 150.391 C 169.697 150.185,169.663 150.197,168.660 150.741 M228.708 151.593 C 228.708 151.676,229.462 152.244,230.383 152.856 C 231.304 153.467,232.919 154.737,233.971 155.676 C 235.165 156.742,235.465 156.933,234.769 156.184 C 233.283 154.586,228.708 151.120,228.708 151.593 M160.756 156.858 L 158.692 159.011 160.845 156.947 C 162.030 155.812,162.998 154.843,162.998 154.794 C 162.998 154.559,162.674 154.858,160.756 156.858 M148.576 166.348 C 149.134 167.049,150.299 168.413,151.166 169.378 L 152.742 171.132 153.083 170.241 C 153.270 169.751,153.498 168.961,153.588 168.487 C 153.678 168.012,153.513 168.266,153.221 169.050 L 152.690 170.477 150.126 167.775 C 148.715 166.288,148.017 165.646,148.576 166.348 M240.554 166.867 C 240.505 167.806,240.148 168.170,238.756 168.699 L 237.799 169.063 238.756 168.881 C 240.065 168.633,240.919 167.732,240.741 166.789 C 240.602 166.054,240.596 166.056,240.554 166.867 M231.419 170.973 C 230.542 171.297,230.040 171.561,230.303 171.561 C 230.566 171.561,231.499 171.297,232.376 170.973 C 233.254 170.649,233.756 170.384,233.493 170.384 C 233.230 170.384,232.297 170.649,231.419 170.973 M223.664 173.424 C 222.908 173.691,222.345 173.967,222.414 174.035 C 222.483 174.104,223.317 173.885,224.268 173.547 C 225.219 173.210,225.781 172.934,225.518 172.935 C 225.255 172.936,224.421 173.156,223.664 173.424 M215.152 176.566 C 214.354 176.950,214.327 176.995,214.992 176.832 C 215.896 176.611,216.912 176.094,216.427 176.101 C 216.252 176.103,215.678 176.313,215.152 176.566 M206.699 180.064 C 206.260 180.315,206.045 180.520,206.220 180.520 C 206.396 180.520,206.898 180.315,207.337 180.064 C 207.775 179.813,207.990 179.608,207.815 179.608 C 207.640 179.608,207.137 179.813,206.699 180.064 M204.067 181.363 C 202.875 182.010,202.947 182.279,204.147 181.659 C 204.673 181.387,205.104 181.096,205.104 181.013 C 205.104 180.807,205.069 180.819,204.067 181.363 M188.006 193.700 C 186.609 195.312,186.194 195.853,186.356 195.853 C 186.449 195.853,187.055 195.207,187.702 194.418 C 188.900 192.956,189.138 192.395,188.006 193.700 M181.978 202.233 C 181.706 202.759,181.555 203.190,181.642 203.190 C 181.730 203.190,182.024 202.759,182.297 202.233 C 182.569 201.707,182.720 201.276,182.632 201.276 C 182.544 201.276,182.250 201.707,181.978 202.233 M180.602 204.960 C 179.642 206.938,179.749 207.214,180.739 205.312 C 181.181 204.461,181.489 203.711,181.422 203.644 C 181.355 203.577,180.986 204.169,180.602 204.960 M231.100 206.380 C 230.828 206.906,230.677 207.337,230.765 207.337 C 230.853 207.337,231.147 206.906,231.419 206.380 C 231.692 205.853,231.843 205.423,231.755 205.423 C 231.667 205.423,231.373 205.853,231.100 206.380 M177.060 214.540 C 176.854 215.358,176.746 216.086,176.819 216.159 C 176.892 216.233,177.120 215.623,177.326 214.806 C 177.532 213.988,177.640 213.260,177.567 213.187 C 177.494 213.114,177.266 213.723,177.060 214.540 M175.564 227.751 C 175.564 230.120,175.614 231.089,175.675 229.904 C 175.737 228.720,175.737 226.782,175.675 225.598 C 175.614 224.414,175.564 225.383,175.564 227.751 M175.844 234.450 C 175.844 235.239,175.907 235.562,175.983 235.167 C 176.059 234.773,176.059 234.127,175.983 233.732 C 175.907 233.337,175.844 233.660,175.844 234.450 M176.168 237.799 C 176.170 238.676,176.232 238.997,176.305 238.512 C 176.379 238.027,176.377 237.310,176.301 236.917 C 176.225 236.525,176.165 236.922,176.168 237.799 M176.487 240.989 C 176.489 241.866,176.551 242.187,176.624 241.702 C 176.698 241.217,176.696 240.500,176.620 240.107 C 176.544 239.715,176.484 240.112,176.487 240.989 M176.801 244.657 C 176.801 245.447,176.864 245.770,176.940 245.375 C 177.016 244.980,177.016 244.334,176.940 243.939 C 176.864 243.545,176.801 243.868,176.801 244.657 M177.129 248.166 C 177.129 249.131,177.189 249.526,177.262 249.043 C 177.335 248.561,177.335 247.771,177.262 247.289 C 177.189 246.806,177.129 247.201,177.129 248.166 M177.444 251.834 C 177.446 252.711,177.508 253.032,177.581 252.547 C 177.655 252.063,177.653 251.345,177.577 250.953 C 177.501 250.560,177.441 250.957,177.444 251.834 M177.758 255.821 C 177.758 256.611,177.821 256.934,177.897 256.539 C 177.973 256.144,177.973 255.498,177.897 255.104 C 177.821 254.709,177.758 255.032,177.758 255.821 M178.082 259.171 C 178.084 260.048,178.146 260.369,178.219 259.884 C 178.293 259.399,178.291 258.681,178.215 258.289 C 178.139 257.897,178.079 258.293,178.082 259.171 M214.648 260.686 C 214.553 261.371,214.602 261.762,214.762 261.602 C 214.916 261.448,214.990 260.910,214.928 260.406 C 214.822 259.562,214.800 259.585,214.648 260.686 M178.396 263.158 C 178.396 263.947,178.458 264.270,178.535 263.876 C 178.611 263.481,178.611 262.835,178.535 262.440 C 178.458 262.045,178.396 262.368,178.396 263.158 M209.091 263.648 C 208.293 264.032,208.267 264.076,208.931 263.914 C 209.835 263.693,210.851 263.175,210.367 263.182 C 210.191 263.185,209.617 263.394,209.091 263.648 M178.727 266.826 C 178.729 267.879,178.789 268.271,178.860 267.698 C 178.931 267.124,178.929 266.263,178.856 265.784 C 178.784 265.304,178.725 265.774,178.727 266.826 M179.043 270.813 C 179.043 271.778,179.103 272.173,179.176 271.691 C 179.249 271.208,179.249 270.419,179.176 269.936 C 179.103 269.454,179.043 269.848,179.043 270.813 M179.276 273.884 C 179.260 274.488,180.146 275.017,180.923 274.869 C 181.587 274.742,181.575 274.724,180.797 274.685 C 180.324 274.661,179.790 274.390,179.611 274.083 C 179.432 273.776,179.281 273.687,179.276 273.884 M214.499 290.271 C 214.499 297.201,214.541 300.036,214.593 296.571 C 214.644 293.106,214.644 287.436,214.593 283.971 C 214.541 280.506,214.499 283.341,214.499 290.271 M201.116 280.553 C 200.319 280.938,200.292 280.982,200.957 280.819 C 201.861 280.599,202.877 280.081,202.392 280.088 C 202.217 280.090,201.643 280.300,201.116 280.553 M209.729 280.553 C 208.927 280.940,208.902 280.983,209.569 280.822 C 210.008 280.717,210.503 280.503,210.670 280.347 C 211.083 279.961,210.856 280.010,209.729 280.553 M211.310 293.461 C 211.310 300.742,211.352 303.720,211.403 300.080 C 211.454 296.439,211.454 290.482,211.403 286.842 C 211.352 283.202,211.310 286.180,211.310 293.461 M200.544 284.105 C 199.001 284.732,197.792 285.299,197.857 285.363 C 197.970 285.477,203.529 283.325,203.801 283.063 C 204.146 282.730,203.115 283.060,200.544 284.105 M183.254 287.702 C 182.552 288.034,182.121 288.307,182.297 288.308 C 182.732 288.311,185.249 287.133,184.848 287.113 C 184.673 287.105,183.955 287.370,183.254 287.702 M188.039 289.038 C 186.301 289.743,185.651 290.177,186.921 289.786 C 188.093 289.424,190.322 288.403,189.952 288.397 C 189.777 288.394,188.916 288.683,188.039 289.038 M179.411 290.036 C 179.326 290.258,179.295 294.528,179.341 299.526 L 179.427 308.612 179.586 299.123 C 179.673 293.903,179.704 289.633,179.655 289.633 C 179.606 289.633,179.496 289.814,179.411 290.036 M214.461 305.582 C 214.461 306.898,214.518 307.436,214.586 306.778 C 214.655 306.120,214.655 305.044,214.586 304.386 C 214.518 303.728,214.461 304.266,214.461 305.582 M184.295 310.338 C 184.868 310.880,185.502 311.324,185.704 311.324 C 185.906 311.324,186.011 311.282,185.938 311.231 C 185.865 311.180,185.231 310.737,184.530 310.245 L 183.254 309.352 184.295 310.338 M208.293 310.792 C 207.229 311.451,206.718 311.491,197.289 311.654 L 187.400 311.824 196.970 311.886 C 206.902 311.950,208.554 311.752,209.389 310.400 C 209.667 309.951,209.631 309.964,208.293 310.792 M181.181 311.962 C 181.556 312.489,182.176 313.081,182.558 313.277 C 183.000 313.504,182.794 313.155,181.993 312.320 C 180.499 310.762,180.247 310.651,181.181 311.962 M211.324 312.807 C 210.363 313.665,210.291 313.784,211.033 313.288 C 211.915 312.699,213.024 311.624,212.718 311.655 C 212.653 311.661,212.026 312.180,211.324 312.807 M196.810 314.833 L 186.443 315.005 196.651 315.047 C 202.265 315.069,207.217 314.973,207.656 314.833 C 208.231 314.648,208.276 314.589,207.815 314.618 C 207.464 314.641,202.512 314.737,196.810 314.833 " stroke="none" fill="#fcf444" fill-rule="evenodd"></path></g></svg>