<svg id="svg" version="1.1" width="400" height="170.625" viewBox="0 0 400 170.625" xmlns="http://www.w3.org/2000/svg" xmlns:xlink="http://www.w3.org/1999/xlink"><g id="svgg"><path id="path0" d="M335.239 113.242 C 334.394 113.572,333.473 113.947,333.191 114.076 C 332.700 114.300,331.460 114.775,329.266 115.580 C 327.763 116.131,327.816 116.009,327.816 118.941 C 327.816 122.947,327.703 122.854,332.545 122.861 L 336.166 122.867 336.684 122.361 L 337.201 121.855 337.201 117.241 C 337.201 113.661,337.154 112.630,336.988 112.635 C 336.871 112.639,336.084 112.912,335.239 113.242 " stroke="none" fill="#3014fa" fill-rule="evenodd"></path><path id="path1" d="M332.594 44.066 C 331.608 44.154,330.776 44.297,330.745 44.383 C 330.714 44.469,330.571 44.539,330.428 44.539 C 329.939 44.539,327.816 45.107,327.816 45.238 C 327.816 45.310,327.398 45.490,326.888 45.638 C 326.377 45.786,325.859 46.009,325.736 46.132 C 325.612 46.255,325.147 46.495,324.701 46.665 C 324.255 46.835,323.891 47.037,323.891 47.114 C 323.891 47.191,323.603 47.387,323.251 47.550 C 322.573 47.864,322.527 47.902,320.859 49.492 C 320.270 50.053,319.713 50.512,319.621 50.512 C 319.529 50.512,319.454 50.622,319.454 50.756 C 319.454 50.891,319.224 51.165,318.942 51.365 C 318.660 51.566,318.430 51.835,318.430 51.964 C 318.430 52.093,318.296 52.299,318.131 52.422 C 317.967 52.545,317.647 52.991,317.419 53.413 C 317.192 53.835,316.918 54.235,316.809 54.301 C 316.701 54.366,316.510 54.731,316.385 55.111 C 316.260 55.491,316.101 55.802,316.033 55.802 C 315.965 55.802,315.732 56.340,315.517 56.997 C 315.302 57.654,315.071 58.191,315.004 58.191 C 314.937 58.191,314.744 58.940,314.574 59.855 C 314.405 60.770,314.189 61.571,314.095 61.636 C 313.838 61.811,313.876 67.623,314.134 67.709 C 314.244 67.746,314.334 67.965,314.334 68.196 C 314.334 68.709,314.860 70.872,315.013 70.990 C 315.074 71.037,315.301 71.555,315.518 72.142 C 315.735 72.728,315.960 73.209,316.019 73.210 C 316.078 73.211,316.278 73.556,316.463 73.978 C 316.648 74.399,316.858 74.744,316.928 74.744 C 316.998 74.744,317.167 74.955,317.302 75.213 C 318.191 76.911,319.105 77.313,319.447 76.154 C 319.579 75.710,319.826 75.196,319.997 75.013 C 320.167 74.830,320.307 74.586,320.307 74.472 C 320.307 74.220,322.550 71.843,322.788 71.843 C 322.880 71.843,323.042 71.705,323.147 71.536 C 323.253 71.366,323.656 71.124,324.042 70.996 C 324.428 70.869,324.744 70.704,324.744 70.630 C 324.744 70.556,325.186 70.359,325.725 70.193 C 326.265 70.026,326.746 69.836,326.794 69.770 C 326.842 69.704,327.514 69.551,328.287 69.429 C 329.875 69.179,329.878 69.176,329.179 68.624 C 328.899 68.402,328.669 68.117,328.669 67.990 C 328.669 67.863,328.535 67.687,328.370 67.598 C 327.092 66.905,326.212 61.696,327.207 60.702 C 327.327 60.581,327.533 60.179,327.664 59.808 C 327.921 59.078,329.876 56.997,330.304 56.997 C 330.443 56.997,330.598 56.890,330.647 56.761 C 331.049 55.714,338.055 55.626,338.055 56.667 C 338.055 56.742,338.227 56.856,338.439 56.922 C 338.650 56.987,339.192 57.434,339.643 57.914 C 340.814 59.161,340.870 59.235,341.129 59.898 C 341.258 60.226,341.429 60.540,341.510 60.596 C 341.997 60.932,341.971 65.213,341.479 65.523 C 341.400 65.573,341.219 65.893,341.078 66.232 C 340.936 66.572,340.640 67.064,340.419 67.325 C 339.696 68.179,338.900 68.942,338.732 68.942 C 338.234 68.942,338.686 69.278,339.420 69.454 C 339.889 69.567,340.273 69.711,340.273 69.775 C 340.273 69.839,340.638 69.994,341.084 70.120 C 341.529 70.245,342.181 70.531,342.530 70.754 C 342.880 70.978,343.223 71.160,343.292 71.160 C 343.361 71.160,343.574 71.309,343.765 71.491 C 343.956 71.672,344.403 72.094,344.757 72.428 C 345.574 73.197,346.626 74.978,346.556 75.471 C 346.499 75.863,346.357 75.917,343.003 76.827 C 342.299 77.018,341.685 77.230,341.638 77.298 C 341.591 77.365,341.284 77.472,340.956 77.534 C 340.106 77.695,338.497 78.200,338.396 78.337 C 338.349 78.401,337.850 78.586,337.287 78.749 C 336.724 78.911,336.224 79.099,336.177 79.166 C 336.131 79.233,335.651 79.464,335.111 79.681 C 334.571 79.897,334.129 80.122,334.128 80.182 C 334.127 80.241,333.784 80.441,333.364 80.625 C 332.945 80.809,332.565 81.059,332.518 81.180 C 332.472 81.300,332.320 81.399,332.180 81.399 C 331.657 81.399,328.199 85.092,327.666 86.219 C 327.522 86.525,327.346 86.816,327.275 86.866 C 327.204 86.916,327.020 87.262,326.865 87.634 C 326.710 88.006,326.515 88.353,326.432 88.405 C 326.350 88.457,326.109 89.187,325.897 90.027 C 325.685 90.866,325.435 91.608,325.341 91.675 C 325.109 91.841,325.139 99.649,325.372 99.802 C 325.467 99.864,325.641 101.556,325.760 103.584 C 325.879 105.602,326.025 107.982,326.085 108.874 L 326.195 110.495 327.102 110.487 C 327.600 110.483,328.061 110.396,328.125 110.295 C 328.190 110.194,328.722 109.969,329.309 109.796 C 329.895 109.622,330.375 109.427,330.375 109.362 C 330.375 109.296,330.951 109.072,331.655 108.863 C 332.359 108.654,332.935 108.429,332.935 108.364 C 332.935 108.299,333.434 108.103,334.044 107.929 C 334.654 107.754,335.154 107.557,335.154 107.491 C 335.154 107.425,335.691 107.208,336.348 107.008 C 337.005 106.809,337.543 106.571,337.543 106.480 C 337.543 106.389,337.654 106.314,337.791 106.314 C 338.653 106.314,338.856 105.995,338.971 104.463 C 339.128 102.383,339.449 100.171,339.594 100.171 C 339.662 100.171,339.767 99.767,339.828 99.275 C 339.985 98.005,340.483 95.904,340.627 95.904 C 340.694 95.904,340.880 95.367,341.041 94.710 C 341.202 94.053,341.385 93.515,341.447 93.515 C 341.510 93.515,341.744 92.978,341.967 92.321 C 342.191 91.664,342.431 91.126,342.501 91.126 C 342.571 91.126,342.766 90.742,342.935 90.273 C 343.103 89.804,343.289 89.420,343.348 89.420 C 343.407 89.420,343.637 89.017,343.859 88.524 C 344.082 88.031,344.403 87.479,344.572 87.297 C 344.742 87.115,344.881 86.869,344.881 86.751 C 344.881 86.633,344.982 86.474,345.107 86.399 C 345.232 86.324,345.520 85.917,345.747 85.495 C 345.974 85.073,346.220 84.701,346.292 84.669 C 346.364 84.637,346.549 84.368,346.701 84.072 C 346.854 83.775,347.121 83.432,347.295 83.309 C 347.469 83.187,347.611 82.976,347.611 82.842 C 347.611 82.707,347.765 82.501,347.952 82.384 C 348.140 82.266,348.294 82.111,348.294 82.038 C 348.294 81.912,349.567 80.238,350.089 79.679 C 350.228 79.530,350.341 79.324,350.341 79.222 C 350.341 79.119,350.514 78.895,350.725 78.724 C 350.936 78.553,351.261 78.125,351.447 77.773 C 351.632 77.421,351.835 77.133,351.897 77.133 C 351.959 77.133,352.173 76.788,352.371 76.365 C 352.570 75.943,352.796 75.597,352.875 75.597 C 352.953 75.597,353.122 75.280,353.250 74.892 C 353.378 74.504,353.565 74.101,353.665 73.996 C 353.766 73.891,354.035 73.230,354.264 72.526 C 354.494 71.822,354.730 71.207,354.789 71.160 C 354.936 71.044,355.461 68.376,355.461 67.744 C 355.461 67.464,355.538 67.235,355.631 67.235 C 355.737 67.235,355.802 66.300,355.802 64.771 C 355.802 63.312,355.732 62.264,355.631 62.201 C 355.538 62.143,355.461 61.889,355.461 61.637 C 355.461 61.012,354.921 58.297,354.775 58.191 C 354.711 58.144,354.487 57.587,354.278 56.954 C 354.068 56.320,353.842 55.802,353.774 55.802 C 353.706 55.802,353.513 55.418,353.344 54.949 C 353.175 54.480,352.975 54.096,352.899 54.096 C 352.823 54.096,352.586 53.731,352.372 53.285 C 352.158 52.839,351.844 52.374,351.674 52.251 C 351.504 52.129,351.365 51.956,351.365 51.867 C 351.365 51.633,348.202 48.464,347.968 48.464 C 347.860 48.464,347.728 48.353,347.676 48.218 C 347.624 48.082,347.277 47.813,346.904 47.618 C 346.532 47.424,346.063 47.113,345.863 46.926 C 345.663 46.740,345.404 46.587,345.287 46.587 C 345.171 46.587,344.974 46.490,344.850 46.371 C 344.611 46.141,343.543 45.661,342.833 45.465 C 342.598 45.400,342.363 45.279,342.310 45.197 C 342.257 45.116,341.604 44.919,340.859 44.760 C 340.115 44.601,339.466 44.416,339.418 44.348 C 339.323 44.214,335.728 43.843,334.898 43.881 C 334.616 43.894,333.579 43.977,332.594 44.066 M336.604 110.882 C 336.135 111.037,335.657 111.255,335.542 111.367 C 335.428 111.479,334.948 111.669,334.476 111.790 C 334.004 111.911,333.618 112.066,333.618 112.134 C 333.618 112.202,333.080 112.425,332.423 112.628 C 331.766 112.831,331.229 113.052,331.229 113.119 C 331.229 113.185,330.691 113.387,330.034 113.567 C 329.377 113.747,328.840 113.947,328.840 114.013 C 328.840 114.078,328.398 114.268,327.858 114.435 C 326.061 114.989,326.081 114.934,326.142 119.056 C 326.190 122.317,326.223 122.645,326.536 123.021 C 327.249 123.876,327.500 124.075,327.992 124.173 C 328.270 124.229,328.498 124.342,328.498 124.424 C 328.498 124.506,330.303 124.573,332.509 124.573 C 335.068 124.573,336.519 124.512,336.519 124.403 C 336.519 124.309,336.638 124.232,336.783 124.232 C 337.317 124.232,337.995 123.730,338.319 123.093 C 338.502 122.734,338.709 122.415,338.780 122.383 C 338.850 122.352,338.908 119.773,338.908 116.651 L 338.908 110.976 338.473 110.778 C 337.916 110.524,337.646 110.539,336.604 110.882 M337.236 116.852 C 337.313 123.226,337.592 122.869,332.525 122.861 C 327.706 122.854,327.816 122.945,327.816 118.941 C 327.816 115.997,327.773 116.096,329.267 115.569 C 329.830 115.371,331.135 114.870,332.167 114.456 C 335.442 113.142,336.769 112.640,336.980 112.634 C 337.132 112.629,337.197 113.704,337.236 116.852 " stroke="none" fill="#fbdc44" fill-rule="evenodd"></path><path id="path2" d="M133.991 64.493 C 133.679 64.572,133.257 64.784,133.052 64.963 C 132.847 65.142,132.465 65.396,132.202 65.527 C 131.940 65.658,131.598 66.039,131.443 66.372 C 131.288 66.706,131.088 67.029,130.999 67.090 C 130.910 67.151,130.883 67.319,130.938 67.463 C 130.994 67.607,130.975 67.750,130.898 67.779 C 130.691 67.858,130.480 69.625,130.677 69.625 C 130.767 69.625,130.803 69.817,130.758 70.051 C 130.704 70.337,130.754 70.479,130.910 70.480 C 131.090 70.482,131.095 70.514,130.931 70.618 C 130.766 70.723,130.775 70.826,130.974 71.084 C 131.115 71.267,131.404 71.685,131.618 72.014 C 131.843 72.360,132.362 72.790,132.854 73.038 C 133.321 73.272,133.729 73.522,133.760 73.592 C 133.841 73.775,136.689 73.751,136.689 73.568 C 136.689 73.485,136.966 73.365,137.304 73.302 C 137.896 73.190,139.420 71.876,139.420 71.476 C 139.420 71.385,139.496 71.358,139.588 71.415 C 139.685 71.475,139.714 71.407,139.657 71.259 C 139.602 71.116,139.675 70.881,139.818 70.738 C 140.291 70.265,140.069 66.553,139.568 66.553 C 139.491 66.553,139.314 66.332,139.174 66.061 C 139.034 65.790,138.725 65.520,138.487 65.460 C 138.249 65.401,138.055 65.243,138.055 65.109 C 138.055 64.976,137.966 64.812,137.858 64.745 C 137.736 64.669,137.707 64.698,137.782 64.820 C 137.957 65.103,137.684 65.063,137.218 64.737 C 136.758 64.414,134.863 64.271,133.991 64.493 M241.892 64.849 C 241.834 64.945,241.719 64.982,241.638 64.932 C 240.902 64.477,240.479 109.119,241.213 109.728 C 241.470 109.941,248.329 110.001,248.664 109.794 C 248.742 109.746,248.823 106.083,248.846 101.654 L 248.886 93.601 248.975 101.451 L 249.064 109.300 249.148 100.486 C 249.194 95.637,249.174 91.706,249.104 91.750 C 249.034 91.793,248.976 91.754,248.976 91.663 C 248.976 91.571,249.046 91.470,249.131 91.439 C 249.217 91.408,249.325 91.137,249.371 90.837 C 249.513 89.918,249.853 89.004,250.137 88.780 C 250.298 88.652,250.325 88.567,250.203 88.567 C 250.091 88.567,250.154 88.413,250.341 88.225 C 250.529 88.038,250.683 87.801,250.683 87.700 C 250.683 87.599,250.990 87.221,251.365 86.860 C 251.741 86.499,252.048 86.115,252.048 86.006 C 252.048 85.897,252.144 85.840,252.261 85.880 C 252.378 85.919,252.551 85.859,252.645 85.747 C 252.843 85.509,254.422 84.983,254.938 84.983 C 255.132 84.983,255.290 84.907,255.290 84.813 C 255.290 84.718,255.705 84.653,256.229 84.665 C 256.745 84.677,257.167 84.762,257.167 84.854 C 257.167 84.946,257.398 84.988,257.679 84.947 C 257.961 84.905,258.191 84.944,258.191 85.032 C 258.191 85.121,258.345 85.153,258.532 85.104 C 258.720 85.055,258.874 85.077,258.874 85.153 C 258.874 85.229,259.102 85.370,259.381 85.468 C 259.660 85.565,260.161 85.918,260.496 86.252 C 260.830 86.587,261.160 86.860,261.228 86.860 C 261.297 86.860,261.494 87.186,261.667 87.585 C 261.839 87.984,262.069 88.367,262.176 88.436 C 262.312 88.523,262.298 88.562,262.132 88.564 C 261.943 88.566,261.953 88.634,262.180 88.884 C 262.705 89.464,262.797 91.136,262.803 100.256 C 262.808 107.614,262.853 109.357,263.042 109.607 C 263.255 109.887,263.579 109.909,266.919 109.863 L 270.563 109.812 270.614 99.147 C 270.666 88.138,270.543 85.770,269.887 85.093 C 269.783 84.986,269.600 84.567,269.481 84.163 C 269.362 83.759,269.153 83.387,269.018 83.334 C 268.882 83.282,268.771 83.129,268.771 82.994 C 268.771 82.859,268.578 82.556,268.341 82.319 C 268.105 82.083,267.937 81.837,267.969 81.772 C 268.039 81.629,266.434 80.039,266.327 80.146 C 266.286 80.188,265.999 79.991,265.690 79.709 C 265.382 79.428,265.066 79.236,264.988 79.284 C 264.910 79.332,264.846 79.278,264.846 79.163 C 264.846 79.047,264.796 79.004,264.734 79.066 C 264.672 79.127,264.519 79.092,264.393 78.988 C 264.267 78.883,264.164 78.851,264.164 78.916 C 264.164 78.981,264.043 78.914,263.896 78.766 C 263.748 78.619,263.479 78.498,263.298 78.498 C 263.117 78.498,262.969 78.413,262.969 78.309 C 262.969 78.193,262.806 78.161,262.543 78.227 C 262.274 78.295,262.116 78.262,262.116 78.139 C 262.116 78.013,261.934 77.980,261.604 78.046 C 261.323 78.102,261.092 78.084,261.092 78.005 C 261.092 77.926,260.132 77.858,258.959 77.856 C 257.786 77.853,256.826 77.906,256.826 77.974 C 256.826 78.042,256.596 78.064,256.314 78.023 C 256.007 77.978,255.802 78.024,255.802 78.138 C 255.802 78.242,255.721 78.328,255.621 78.328 C 255.522 78.328,255.484 78.258,255.536 78.173 C 255.589 78.088,255.472 78.060,255.276 78.111 C 255.055 78.169,254.993 78.249,255.111 78.323 C 255.217 78.388,254.886 78.534,254.377 78.648 C 253.868 78.762,253.316 79.005,253.150 79.189 C 252.984 79.372,252.742 79.522,252.613 79.522 C 252.484 79.522,252.334 79.639,252.279 79.781 C 252.224 79.924,252.092 80.020,251.984 79.995 C 251.877 79.971,251.483 80.286,251.108 80.697 C 250.733 81.107,250.286 81.593,250.114 81.776 C 249.942 81.960,249.845 82.155,249.899 82.209 C 249.954 82.263,249.843 82.415,249.655 82.548 C 249.466 82.680,249.353 82.854,249.403 82.935 C 249.453 83.016,249.416 83.130,249.320 83.189 C 249.204 83.261,249.147 80.369,249.147 74.356 L 249.147 65.416 248.720 65.188 C 248.485 65.062,248.294 64.896,248.294 64.818 C 248.294 64.608,242.023 64.639,241.892 64.849 M202.519 65.399 C 202.356 65.562,202.174 66.003,202.114 66.380 C 202.053 66.757,201.929 67.065,201.837 67.065 C 201.744 67.065,201.717 67.254,201.777 67.491 C 201.835 67.726,201.819 67.918,201.740 67.918 C 201.661 67.918,201.492 68.417,201.365 69.027 C 201.238 69.637,201.062 70.137,200.974 70.137 C 200.886 70.137,200.850 70.328,200.895 70.563 C 200.940 70.798,200.920 70.990,200.851 70.990 C 200.782 70.990,200.591 71.680,200.427 72.523 C 200.247 73.453,200.061 74.014,199.956 73.949 C 199.848 73.882,199.813 74.042,199.862 74.378 C 199.905 74.673,199.889 74.915,199.826 74.915 C 199.689 74.915,199.147 77.303,199.147 77.906 C 199.147 78.138,199.065 78.328,198.965 78.328 C 198.860 78.328,198.829 78.473,198.891 78.669 C 198.957 78.879,198.921 79.010,198.797 79.010 C 198.679 79.010,198.632 79.152,198.684 79.351 C 198.733 79.539,198.711 79.731,198.634 79.779 C 198.557 79.826,198.442 80.172,198.379 80.547 C 198.315 80.922,198.205 81.229,198.134 81.229 C 198.063 81.229,197.828 82.150,197.611 83.276 C 197.394 84.403,197.162 85.324,197.096 85.324 C 197.029 85.324,196.835 86.015,196.663 86.860 C 196.492 87.705,196.296 88.396,196.229 88.396 C 196.162 88.396,196.056 88.799,195.993 89.292 C 195.821 90.650,195.405 92.350,195.118 92.875 C 194.916 93.245,194.909 93.345,195.084 93.347 C 195.243 93.349,195.251 93.386,195.112 93.475 C 195.004 93.544,194.816 94.196,194.694 94.923 C 194.572 95.651,194.403 96.246,194.317 96.246 C 194.231 96.246,194.209 96.438,194.268 96.672 C 194.335 96.938,194.303 97.099,194.183 97.099 C 194.063 97.099,194.031 97.259,194.097 97.526 C 194.156 97.760,194.135 97.952,194.050 97.952 C 193.965 97.952,193.843 98.375,193.779 98.891 C 193.570 100.557,193.061 99.986,192.753 97.739 C 192.691 97.293,192.569 96.928,192.481 96.928 C 192.393 96.928,192.321 96.773,192.321 96.583 C 192.321 95.950,191.904 94.027,191.767 94.027 C 191.692 94.027,191.679 93.840,191.736 93.610 C 191.794 93.381,191.779 93.093,191.703 92.971 C 191.627 92.848,191.588 92.536,191.615 92.278 C 191.642 92.020,191.595 91.809,191.510 91.809 C 191.426 91.809,191.222 91.041,191.058 90.102 C 190.893 89.164,190.697 88.396,190.622 88.396 C 190.547 88.396,190.397 87.801,190.289 87.073 C 190.181 86.346,190.029 85.729,189.952 85.702 C 189.874 85.675,189.847 85.464,189.891 85.233 C 189.935 85.002,189.896 84.812,189.805 84.812 C 189.713 84.812,189.674 84.620,189.719 84.386 C 189.764 84.151,189.724 83.959,189.630 83.959 C 189.536 83.959,189.404 83.594,189.337 83.148 C 189.270 82.703,189.127 82.281,189.019 82.213 C 188.871 82.118,188.871 82.086,189.020 82.085 C 189.133 82.083,189.179 81.936,189.128 81.741 C 189.079 81.553,188.984 81.399,188.918 81.399 C 188.851 81.399,188.832 81.158,188.875 80.863 C 188.919 80.563,188.885 80.369,188.798 80.423 C 188.712 80.476,188.456 79.528,188.229 78.315 C 188.003 77.102,187.765 76.109,187.701 76.109 C 187.637 76.109,187.448 75.399,187.281 74.531 C 187.114 73.663,186.927 72.914,186.864 72.867 C 186.802 72.820,186.618 72.090,186.455 71.246 C 186.291 70.401,186.086 69.684,185.997 69.653 C 185.909 69.622,185.885 69.402,185.945 69.166 C 186.006 68.923,185.973 68.685,185.869 68.621 C 185.767 68.558,185.599 67.973,185.495 67.321 C 185.391 66.669,185.214 66.076,185.102 66.005 C 184.989 65.934,184.954 65.874,185.024 65.873 C 185.093 65.871,185.019 65.717,184.858 65.529 C 184.556 65.176,176.820 64.984,176.365 65.318 C 176.147 65.479,176.044 66.724,176.249 66.724 C 176.334 66.724,176.366 66.916,176.322 67.150 C 176.277 67.385,176.312 67.577,176.399 67.577 C 176.487 67.577,176.658 68.076,176.779 68.686 C 176.900 69.296,177.073 69.795,177.163 69.795 C 177.253 69.795,177.278 69.949,177.218 70.137 C 177.159 70.324,177.178 70.478,177.261 70.478 C 177.344 70.478,177.511 70.977,177.632 71.587 C 177.754 72.197,177.904 72.696,177.966 72.696 C 178.028 72.696,178.079 73.007,178.079 73.387 C 178.079 73.774,178.178 74.140,178.303 74.217 C 178.427 74.293,178.520 74.424,178.510 74.507 C 178.469 74.867,178.908 76.451,179.049 76.451 C 179.134 76.451,179.155 76.604,179.096 76.792 C 179.025 77.015,179.065 77.134,179.212 77.136 C 179.377 77.138,179.369 77.182,179.181 77.304 C 179.037 77.397,179.012 77.470,179.123 77.472 C 179.231 77.473,179.459 78.089,179.628 78.840 C 179.798 79.590,179.993 80.205,180.063 80.205 C 180.132 80.205,180.159 80.436,180.123 80.719 C 180.088 81.002,180.120 81.196,180.194 81.150 C 180.269 81.104,180.463 81.736,180.626 82.555 C 180.788 83.374,180.989 84.086,181.072 84.138 C 181.154 84.189,181.379 84.992,181.570 85.922 C 181.761 86.851,181.981 87.654,182.059 87.705 C 182.136 87.757,182.247 88.100,182.305 88.467 C 182.364 88.835,182.471 89.181,182.545 89.235 C 182.619 89.290,182.692 89.595,182.707 89.912 C 182.722 90.230,182.811 90.537,182.903 90.595 C 182.996 90.653,183.127 91.064,183.194 91.510 C 183.261 91.956,183.388 92.321,183.477 92.321 C 183.565 92.321,183.592 92.396,183.535 92.487 C 183.403 92.700,183.814 94.714,183.969 94.618 C 184.033 94.579,184.128 94.863,184.180 95.250 C 184.232 95.637,184.338 96.000,184.415 96.057 C 184.493 96.114,184.563 96.391,184.571 96.672 C 184.595 97.501,184.844 98.635,185.003 98.635 C 185.083 98.635,185.199 98.942,185.259 99.317 C 185.319 99.693,185.416 100.000,185.474 100.001 C 185.532 100.001,185.592 100.319,185.607 100.706 C 185.622 101.094,185.706 101.458,185.795 101.516 C 185.883 101.574,186.085 102.274,186.244 103.072 C 186.403 103.869,186.607 104.548,186.697 104.579 C 186.786 104.610,186.860 104.711,186.860 104.802 C 186.860 104.894,186.790 104.926,186.705 104.873 C 186.620 104.821,186.591 104.931,186.640 105.119 C 186.689 105.307,186.783 105.461,186.849 105.461 C 186.914 105.461,187.067 105.960,187.189 106.570 C 187.310 107.180,187.479 107.679,187.564 107.679 C 187.650 107.679,187.672 107.871,187.613 108.106 C 187.547 108.369,187.578 108.532,187.695 108.532 C 187.799 108.532,187.884 108.753,187.884 109.023 C 187.884 109.929,188.002 109.949,193.047 109.911 C 197.846 109.875,198.640 109.744,198.214 109.054 C 198.161 108.968,198.199 108.847,198.299 108.785 C 198.399 108.723,198.465 108.545,198.446 108.389 C 198.427 108.233,198.471 107.968,198.544 107.800 C 198.617 107.632,198.631 107.448,198.576 107.392 C 198.520 107.337,198.633 107.068,198.827 106.795 C 199.065 106.462,199.146 106.162,199.075 105.880 C 199.017 105.650,199.039 105.461,199.123 105.461 C 199.208 105.461,199.408 104.731,199.569 103.840 C 199.730 102.948,199.940 102.218,200.036 102.218 C 200.132 102.218,200.174 102.026,200.129 101.792 C 200.084 101.557,200.122 101.365,200.214 101.365 C 200.306 101.365,200.344 101.173,200.300 100.939 C 200.255 100.704,200.270 100.512,200.334 100.512 C 200.397 100.512,200.551 99.994,200.676 99.360 C 200.801 98.727,200.965 98.167,201.041 98.117 C 201.118 98.067,201.313 97.414,201.475 96.667 C 201.637 95.919,201.843 95.257,201.933 95.196 C 202.024 95.135,202.045 94.950,201.982 94.783 C 201.918 94.617,201.945 94.432,202.042 94.372 C 202.139 94.312,202.347 93.615,202.503 92.823 C 202.660 92.030,202.849 91.341,202.923 91.291 C 202.998 91.241,203.189 90.551,203.349 89.758 C 203.509 88.965,203.748 88.207,203.880 88.075 C 204.078 87.877,204.081 87.809,203.895 87.691 C 203.709 87.574,203.711 87.547,203.902 87.545 C 204.058 87.544,204.109 87.402,204.055 87.122 C 204.011 86.891,204.039 86.679,204.117 86.653 C 204.195 86.626,204.339 86.186,204.436 85.674 C 204.532 85.163,204.698 84.691,204.805 84.625 C 204.911 84.560,204.956 84.344,204.904 84.147 C 204.852 83.950,204.889 83.788,204.985 83.788 C 205.081 83.788,205.123 83.599,205.079 83.368 C 205.035 83.136,205.069 82.924,205.155 82.895 C 205.242 82.866,205.355 82.519,205.408 82.124 C 205.465 81.701,205.576 81.450,205.678 81.514 C 205.786 81.580,205.819 81.452,205.766 81.175 C 205.719 80.929,205.753 80.705,205.842 80.675 C 205.930 80.646,206.015 80.298,206.030 79.902 C 206.045 79.507,206.106 79.182,206.164 79.182 C 206.223 79.181,206.319 78.874,206.380 78.498 C 206.440 78.123,206.574 77.816,206.677 77.816 C 206.782 77.816,206.826 77.664,206.776 77.474 C 206.727 77.287,206.755 77.133,206.839 77.133 C 206.922 77.133,207.038 77.325,207.097 77.560 C 207.156 77.794,207.266 77.986,207.340 77.986 C 207.415 77.986,207.436 78.140,207.387 78.328 C 207.338 78.515,207.379 78.669,207.478 78.669 C 207.577 78.669,207.710 79.015,207.773 79.437 C 207.837 79.859,207.937 80.205,207.997 80.206 C 208.057 80.207,208.123 80.571,208.143 81.015 C 208.164 81.459,208.260 81.849,208.356 81.881 C 208.453 81.913,208.485 82.125,208.428 82.352 C 208.371 82.579,208.400 82.765,208.492 82.765 C 208.584 82.765,208.749 83.225,208.860 83.788 C 208.971 84.352,209.143 84.812,209.242 84.812 C 209.341 84.812,209.374 84.937,209.316 85.090 C 209.257 85.243,209.275 85.454,209.355 85.559 C 209.435 85.665,209.639 86.423,209.806 87.244 C 209.974 88.065,210.180 88.737,210.264 88.737 C 210.348 88.737,210.368 88.929,210.309 89.164 C 210.249 89.405,210.276 89.590,210.372 89.590 C 210.465 89.590,210.595 89.948,210.661 90.385 C 210.726 90.823,210.862 91.379,210.963 91.623 C 211.064 91.866,211.129 92.172,211.106 92.303 C 211.084 92.433,211.138 92.587,211.225 92.644 C 211.313 92.701,211.512 93.439,211.667 94.283 C 211.823 95.128,212.021 95.843,212.109 95.873 C 212.196 95.902,212.222 96.044,212.167 96.189 C 212.112 96.333,212.139 96.501,212.229 96.562 C 212.318 96.623,212.481 97.171,212.592 97.781 C 212.703 98.390,212.860 98.911,212.942 98.939 C 213.024 98.966,213.054 99.177,213.010 99.409 C 212.966 99.640,213.001 99.829,213.089 99.829 C 213.176 99.829,213.430 100.789,213.652 101.962 C 213.874 103.136,214.118 104.096,214.193 104.096 C 214.269 104.096,214.380 104.403,214.440 104.778 C 214.500 105.154,214.609 105.461,214.682 105.461 C 214.755 105.461,214.772 105.622,214.721 105.820 C 214.666 106.030,214.725 106.241,214.865 106.329 C 215.009 106.420,215.025 106.480,214.905 106.482 C 214.792 106.484,214.746 106.631,214.797 106.826 C 214.846 107.014,214.945 107.167,215.018 107.167 C 215.090 107.167,215.242 107.662,215.356 108.266 C 215.695 110.059,215.295 109.944,221.118 109.918 C 224.977 109.900,225.597 109.862,225.597 109.642 C 225.597 109.501,225.666 109.386,225.750 109.386 C 225.948 109.386,226.108 108.954,226.226 108.106 C 226.278 107.730,226.383 107.383,226.460 107.334 C 226.601 107.245,226.654 107.037,226.987 105.247 C 227.087 104.708,227.247 104.266,227.342 104.266 C 227.437 104.266,227.477 104.074,227.433 103.840 C 227.388 103.605,227.426 103.413,227.518 103.413 C 227.610 103.413,227.648 103.221,227.603 102.986 C 227.558 102.752,227.574 102.560,227.639 102.560 C 227.703 102.560,227.844 102.086,227.951 101.506 C 228.059 100.927,228.237 100.397,228.347 100.329 C 228.457 100.261,228.505 100.044,228.453 99.847 C 228.402 99.650,228.436 99.441,228.529 99.384 C 228.622 99.326,228.661 99.134,228.615 98.957 C 228.568 98.780,228.595 98.595,228.675 98.546 C 228.755 98.496,228.871 98.113,228.934 97.694 C 228.997 97.275,229.108 96.969,229.181 97.014 C 229.254 97.059,229.364 96.809,229.424 96.458 C 229.675 94.997,230.116 93.252,230.259 93.153 C 230.343 93.094,230.360 92.883,230.297 92.683 C 230.234 92.484,230.255 92.321,230.345 92.321 C 230.435 92.321,230.608 91.825,230.728 91.220 C 230.850 90.606,231.019 90.164,231.111 90.220 C 231.208 90.280,231.242 90.103,231.196 89.785 C 231.153 89.490,231.190 89.249,231.278 89.249 C 231.367 89.249,231.399 89.096,231.350 88.908 C 231.301 88.720,231.317 88.567,231.385 88.567 C 231.454 88.567,231.598 88.092,231.706 87.513 C 231.813 86.934,231.992 86.404,232.102 86.336 C 232.212 86.268,232.259 86.051,232.208 85.854 C 232.156 85.656,232.192 85.495,232.288 85.495 C 232.384 85.495,232.426 85.303,232.381 85.068 C 232.337 84.834,232.361 84.642,232.435 84.642 C 232.509 84.642,232.664 84.200,232.780 83.660 C 232.897 83.121,233.064 82.584,233.153 82.468 C 233.242 82.352,233.272 82.146,233.220 82.010 C 233.168 81.874,233.193 81.739,233.277 81.709 C 233.361 81.679,233.473 81.387,233.526 81.058 C 233.722 79.855,233.835 79.435,233.986 79.338 C 234.071 79.284,234.165 78.969,234.195 78.638 C 234.224 78.308,234.289 77.968,234.337 77.884 C 234.386 77.799,234.521 77.327,234.636 76.834 C 234.752 76.342,234.924 75.939,235.020 75.939 C 235.115 75.939,235.157 75.749,235.113 75.518 C 235.069 75.287,235.096 75.075,235.173 75.049 C 235.250 75.022,235.360 74.693,235.418 74.317 C 235.475 73.942,235.632 73.410,235.766 73.135 C 235.901 72.861,235.966 72.496,235.912 72.325 C 235.854 72.143,235.897 72.014,236.015 72.014 C 236.133 72.014,236.180 71.872,236.128 71.672 C 236.079 71.485,236.102 71.331,236.180 71.331 C 236.315 71.331,236.419 70.990,236.618 69.886 C 236.668 69.607,236.790 69.282,236.889 69.163 C 236.988 69.044,237.025 68.833,236.972 68.694 C 236.919 68.555,236.943 68.399,237.027 68.347 C 237.110 68.296,237.266 67.832,237.373 67.318 C 237.479 66.803,237.638 66.382,237.725 66.382 C 237.973 66.382,237.912 65.703,237.640 65.431 C 237.355 65.146,230.027 65.069,229.304 65.344 C 228.952 65.478,228.861 65.685,228.671 66.795 C 228.550 67.506,228.397 68.089,228.331 68.089 C 228.266 68.089,228.037 69.010,227.823 70.137 C 227.608 71.263,227.356 72.184,227.263 72.184 C 227.170 72.184,227.130 72.378,227.176 72.615 C 227.221 72.852,227.198 73.083,227.126 73.127 C 227.053 73.172,226.897 73.747,226.780 74.403 C 226.663 75.060,226.512 75.597,226.446 75.597 C 226.379 75.597,226.281 75.885,226.227 76.237 C 226.174 76.589,226.096 77.031,226.055 77.218 C 226.013 77.406,225.881 78.116,225.761 78.797 C 225.641 79.477,225.470 80.034,225.381 80.034 C 225.292 80.034,225.267 80.226,225.326 80.461 C 225.385 80.695,225.364 80.887,225.280 80.887 C 225.196 80.887,225.031 81.502,224.915 82.253 C 224.798 83.003,224.626 83.618,224.533 83.618 C 224.439 83.618,224.403 83.771,224.452 83.959 C 224.501 84.147,224.463 84.300,224.367 84.300 C 224.271 84.300,224.229 84.494,224.275 84.731 C 224.320 84.968,224.295 85.200,224.220 85.247 C 224.144 85.293,223.986 85.906,223.868 86.608 C 223.750 87.310,223.583 87.884,223.498 87.884 C 223.412 87.884,223.388 88.070,223.445 88.296 C 223.502 88.523,223.475 88.735,223.384 88.766 C 223.293 88.797,223.118 89.421,222.994 90.153 C 222.871 90.885,222.724 91.439,222.668 91.383 C 222.612 91.327,222.533 91.511,222.492 91.792 C 222.450 92.073,222.480 92.264,222.556 92.216 C 222.633 92.169,222.696 92.211,222.696 92.311 C 222.696 92.410,222.611 92.491,222.507 92.491 C 222.392 92.491,222.359 92.654,222.421 92.904 C 222.478 93.131,222.451 93.342,222.360 93.373 C 222.269 93.404,222.151 93.737,222.098 94.113 C 221.933 95.264,221.809 95.812,221.672 95.990 C 221.600 96.084,221.452 96.736,221.343 97.440 C 221.234 98.144,221.109 98.893,221.064 99.104 C 220.907 99.849,220.227 99.405,220.214 98.549 C 220.201 97.759,219.952 96.587,219.796 96.587 C 219.719 96.587,219.560 96.049,219.442 95.392 C 219.325 94.735,219.175 94.198,219.109 94.198 C 219.043 94.198,219.026 94.006,219.071 93.771 C 219.116 93.537,219.079 93.345,218.989 93.345 C 218.899 93.345,218.727 92.788,218.606 92.108 C 218.485 91.427,218.307 90.678,218.211 90.444 C 218.114 90.209,218.052 89.883,218.073 89.718 C 218.093 89.554,218.039 89.420,217.953 89.420 C 217.866 89.420,217.697 88.844,217.577 88.140 C 217.456 87.436,217.303 86.860,217.235 86.860 C 217.167 86.860,217.149 86.668,217.194 86.433 C 217.239 86.199,217.202 86.007,217.113 86.007 C 217.023 86.007,216.772 85.066,216.555 83.916 C 216.337 82.767,216.102 81.788,216.031 81.741 C 215.920 81.666,215.700 80.751,215.405 79.138 C 215.358 78.880,215.265 78.669,215.198 78.669 C 215.131 78.669,215.112 78.428,215.155 78.133 C 215.203 77.803,215.168 77.637,215.064 77.701 C 214.964 77.763,214.772 77.166,214.592 76.232 C 214.426 75.367,214.235 74.620,214.169 74.573 C 214.102 74.526,213.872 73.586,213.657 72.483 C 213.442 71.380,213.207 70.478,213.134 70.478 C 213.061 70.478,212.949 70.094,212.884 69.625 C 212.819 69.155,212.708 68.771,212.636 68.771 C 212.564 68.771,212.541 68.579,212.586 68.345 C 212.636 68.084,212.589 67.918,212.466 67.918 C 212.337 67.918,212.306 67.786,212.379 67.555 C 212.442 67.356,212.417 67.145,212.324 67.086 C 212.230 67.028,212.115 66.690,212.068 66.337 C 211.913 65.173,212.038 65.204,207.193 65.151 C 203.226 65.107,202.787 65.130,202.519 65.399 M52.005 65.449 L 51.536 65.711 51.536 87.627 C 51.536 109.247,51.540 109.547,51.871 109.724 C 52.095 109.844,55.157 109.899,61.044 109.889 C 65.904 109.881,70.246 109.883,70.694 109.894 C 71.141 109.906,71.601 109.856,71.717 109.784 C 71.833 109.713,72.139 109.676,72.398 109.703 C 72.664 109.731,72.867 109.669,72.867 109.558 C 72.867 109.442,73.002 109.406,73.198 109.468 C 73.379 109.525,73.667 109.496,73.837 109.403 C 74.008 109.310,74.435 109.188,74.787 109.131 C 75.139 109.075,75.427 108.975,75.427 108.909 C 75.427 108.843,75.666 108.780,75.957 108.769 C 76.248 108.759,76.542 108.660,76.610 108.550 C 76.678 108.440,76.862 108.399,77.019 108.460 C 77.176 108.520,77.304 108.492,77.304 108.399 C 77.304 108.305,77.496 108.180,77.730 108.121 C 77.965 108.062,78.157 107.934,78.157 107.837 C 78.157 107.739,78.234 107.706,78.328 107.765 C 78.422 107.823,78.498 107.780,78.498 107.671 C 78.498 107.562,78.613 107.516,78.754 107.570 C 78.895 107.624,79.010 107.590,79.010 107.493 C 79.010 107.397,79.087 107.365,79.181 107.423 C 79.275 107.481,79.352 107.463,79.352 107.382 C 79.352 107.302,79.609 107.143,79.924 107.029 C 80.239 106.915,80.635 106.669,80.804 106.482 C 80.973 106.296,81.214 106.143,81.339 106.143 C 81.464 106.143,81.663 105.990,81.780 105.802 C 81.897 105.614,82.078 105.461,82.182 105.461 C 82.285 105.461,82.694 105.077,83.089 104.608 C 83.721 103.859,84.363 103.410,84.028 103.951 C 83.950 104.077,83.982 104.102,84.115 104.020 C 84.229 103.949,84.280 103.848,84.227 103.795 C 84.175 103.743,84.285 103.592,84.472 103.461 C 84.659 103.330,84.812 103.154,84.812 103.070 C 84.812 102.985,85.010 102.702,85.251 102.439 C 85.492 102.177,85.799 101.841,85.933 101.692 C 86.068 101.544,86.177 101.332,86.177 101.223 C 86.177 101.113,86.236 101.024,86.308 101.024 C 86.453 101.024,86.591 100.794,87.183 99.567 C 87.407 99.101,87.657 98.694,87.738 98.663 C 87.820 98.631,87.842 98.535,87.789 98.448 C 87.735 98.362,87.809 98.174,87.952 98.030 C 88.199 97.784,88.564 96.748,88.566 96.288 C 88.566 96.171,88.649 96.075,88.749 96.075 C 88.853 96.075,88.885 95.930,88.823 95.734 C 88.756 95.525,88.792 95.392,88.915 95.392 C 89.025 95.392,89.077 95.293,89.030 95.172 C 88.984 95.051,89.052 94.806,89.183 94.627 C 89.313 94.449,89.420 94.103,89.420 93.858 C 89.420 93.613,89.503 93.330,89.604 93.229 C 89.705 93.128,89.801 92.671,89.817 92.214 C 89.833 91.756,89.897 91.344,89.959 91.296 C 90.116 91.176,90.196 89.627,90.053 89.484 C 89.988 89.419,90.023 89.260,90.130 89.130 C 90.352 88.863,90.197 83.907,89.964 83.828 C 89.890 83.803,89.861 83.515,89.900 83.188 C 89.943 82.820,89.896 82.594,89.777 82.594 C 89.656 82.594,89.624 82.434,89.691 82.167 C 89.751 81.926,89.724 81.741,89.628 81.741 C 89.535 81.741,89.406 81.376,89.342 80.930 C 89.204 79.969,88.884 78.789,88.729 78.669 C 88.668 78.622,88.450 78.059,88.244 77.417 C 88.038 76.776,87.693 76.084,87.476 75.881 C 87.260 75.678,87.115 75.420,87.153 75.307 C 87.192 75.194,87.066 74.966,86.872 74.800 C 86.678 74.633,86.519 74.404,86.519 74.289 C 86.519 74.175,86.360 73.969,86.166 73.833 C 85.924 73.664,85.881 73.563,86.031 73.513 C 86.159 73.470,86.028 73.310,85.711 73.122 C 85.414 72.947,85.206 72.749,85.248 72.681 C 85.335 72.541,83.152 70.307,82.929 70.307 C 82.849 70.307,82.677 70.154,82.546 69.967 C 82.415 69.780,82.255 69.679,82.191 69.743 C 82.127 69.807,81.956 69.692,81.812 69.486 C 81.668 69.281,81.443 69.113,81.311 69.113 C 81.179 69.113,80.916 68.945,80.725 68.741 C 80.535 68.537,80.332 68.417,80.274 68.475 C 80.216 68.533,80.011 68.434,79.819 68.255 C 79.628 68.076,79.405 67.970,79.326 68.019 C 79.246 68.069,79.181 68.023,79.181 67.918 C 79.181 67.813,79.104 67.775,79.010 67.833 C 78.916 67.891,78.840 67.869,78.840 67.785 C 78.840 67.701,78.422 67.490,77.911 67.317 C 77.400 67.143,77.026 66.930,77.079 66.844 C 77.134 66.755,77.019 66.737,76.813 66.802 C 76.598 66.870,76.451 66.843,76.451 66.735 C 76.451 66.635,76.301 66.553,76.119 66.553 C 75.937 66.553,75.740 66.475,75.681 66.379 C 75.622 66.284,75.501 66.251,75.413 66.306 C 75.324 66.360,75.024 66.291,74.746 66.153 C 74.467 66.014,74.084 65.941,73.895 65.991 C 73.691 66.044,73.549 65.997,73.549 65.878 C 73.549 65.766,73.377 65.692,73.166 65.713 C 72.954 65.733,72.647 65.692,72.483 65.621 C 72.319 65.551,72.078 65.533,71.949 65.583 C 71.820 65.632,71.624 65.583,71.514 65.473 C 71.173 65.132,52.616 65.109,52.005 65.449 M69.966 72.696 C 69.966 72.790,70.177 72.870,70.435 72.873 C 71.113 72.882,72.844 73.318,73.125 73.551 C 73.256 73.660,73.444 73.700,73.542 73.639 C 73.640 73.579,73.720 73.606,73.720 73.699 C 73.720 73.792,73.989 73.966,74.317 74.085 C 74.646 74.203,74.915 74.367,74.915 74.447 C 74.915 74.528,74.986 74.549,75.074 74.495 C 75.161 74.441,75.441 74.590,75.696 74.827 C 75.951 75.063,76.245 75.256,76.349 75.256 C 76.454 75.256,76.634 75.409,76.751 75.595 C 76.867 75.781,77.240 76.050,77.578 76.191 C 77.970 76.355,78.162 76.533,78.105 76.680 C 78.056 76.808,78.144 77.029,78.300 77.172 C 79.023 77.834,79.486 78.465,79.679 79.053 C 79.795 79.405,79.965 79.693,80.057 79.693 C 80.150 79.693,80.177 79.770,80.119 79.863 C 80.061 79.957,80.082 80.034,80.166 80.034 C 80.305 80.034,80.602 80.963,80.833 82.125 C 80.884 82.383,80.984 82.594,81.055 82.594 C 81.227 82.594,81.388 83.560,81.509 85.324 C 81.564 86.122,81.677 86.848,81.760 86.937 C 81.957 87.148,81.956 88.657,81.758 89.038 C 81.673 89.201,81.518 90.099,81.412 91.033 C 81.307 91.968,81.144 92.780,81.050 92.838 C 80.956 92.896,80.847 93.091,80.807 93.272 C 80.652 93.983,80.375 94.776,80.251 94.869 C 80.058 95.012,79.522 96.217,79.522 96.507 C 79.522 96.645,79.426 96.758,79.308 96.758 C 79.190 96.758,78.996 96.979,78.876 97.250 C 78.635 97.794,76.686 99.838,76.544 99.696 C 76.495 99.646,76.203 99.874,75.895 100.200 C 75.587 100.527,75.240 100.763,75.125 100.724 C 75.009 100.686,74.915 100.737,74.915 100.839 C 74.915 100.941,74.799 101.024,74.659 101.024 C 74.518 101.024,74.403 101.092,74.403 101.176 C 74.403 101.259,74.136 101.377,73.811 101.438 C 73.485 101.499,73.121 101.645,73.000 101.762 C 72.700 102.054,71.574 102.369,70.371 102.497 C 69.820 102.556,69.343 102.671,69.312 102.753 C 69.280 102.834,67.228 102.901,64.750 102.901 L 60.245 102.901 60.153 102.517 C 60.101 102.306,60.081 95.529,60.107 87.457 L 60.154 72.782 64.846 72.692 C 67.427 72.643,69.635 72.585,69.753 72.564 C 69.870 72.543,69.966 72.602,69.966 72.696 M107.167 77.952 C 107.026 77.999,106.848 78.122,106.770 78.225 C 106.668 78.361,106.607 78.359,106.549 78.218 C 106.460 78.003,105.802 78.111,105.802 78.340 C 105.802 78.418,105.533 78.533,105.205 78.595 C 104.876 78.657,104.608 78.768,104.608 78.843 C 104.608 78.917,104.465 78.941,104.292 78.896 C 104.118 78.850,103.855 78.934,103.708 79.081 C 103.560 79.229,103.299 79.377,103.127 79.410 C 102.525 79.526,101.877 79.857,101.877 80.048 C 101.877 80.154,101.762 80.197,101.621 80.143 C 101.480 80.089,101.365 80.119,101.365 80.210 C 101.365 80.301,101.257 80.375,101.124 80.375 C 100.991 80.375,100.588 80.663,100.228 81.014 C 99.868 81.365,99.512 81.653,99.437 81.654 C 99.254 81.656,97.782 83.095,97.782 83.272 C 97.782 83.348,97.555 83.654,97.277 83.951 C 96.999 84.248,96.677 84.755,96.560 85.078 C 96.443 85.401,96.229 85.667,96.083 85.668 C 95.850 85.670,95.849 85.690,96.075 85.836 C 96.234 85.939,96.253 86.003,96.125 86.004 C 96.011 86.006,95.784 86.385,95.620 86.848 C 95.455 87.311,95.248 87.644,95.159 87.589 C 95.067 87.532,95.039 87.646,95.094 87.857 C 95.147 88.059,95.115 88.271,95.024 88.328 C 94.932 88.384,94.898 88.538,94.949 88.669 C 94.999 88.800,94.971 88.908,94.886 88.908 C 94.800 88.908,94.679 89.253,94.616 89.674 C 94.553 90.095,94.438 90.402,94.362 90.354 C 94.286 90.307,94.245 90.579,94.272 90.958 C 94.299 91.337,94.255 91.688,94.174 91.738 C 93.960 91.870,93.986 96.416,94.201 96.416 C 94.303 96.416,94.329 96.599,94.265 96.856 C 94.204 97.098,94.235 97.463,94.333 97.667 C 94.431 97.871,94.601 98.537,94.712 99.147 C 94.903 100.199,95.789 102.351,96.127 102.582 C 96.214 102.641,96.180 102.731,96.052 102.782 C 95.881 102.850,95.893 102.878,96.098 102.888 C 96.352 102.900,96.658 103.463,96.601 103.812 C 96.588 103.890,96.733 103.995,96.923 104.045 C 97.114 104.095,97.270 104.274,97.270 104.444 C 97.270 104.614,97.475 104.915,97.726 105.112 C 97.977 105.309,98.266 105.640,98.369 105.846 C 98.472 106.053,98.726 106.307,98.933 106.410 C 99.141 106.513,99.500 106.803,99.732 107.053 C 99.964 107.304,100.264 107.509,100.399 107.509 C 100.533 107.509,100.683 107.662,100.732 107.850 C 100.781 108.038,100.944 108.191,101.093 108.191 C 101.243 108.191,101.365 108.266,101.365 108.356 C 101.365 108.447,101.480 108.478,101.621 108.423 C 101.762 108.369,101.877 108.408,101.877 108.508 C 101.877 108.731,102.436 109.044,103.020 109.150 C 103.257 109.193,103.569 109.347,103.713 109.491 C 103.858 109.635,104.118 109.716,104.292 109.671 C 104.465 109.625,104.608 109.661,104.608 109.750 C 104.608 109.840,104.703 109.901,104.821 109.887 C 105.171 109.844,105.802 110.095,105.802 110.277 C 105.802 110.373,105.988 110.400,106.229 110.339 C 106.498 110.272,106.655 110.305,106.655 110.429 C 106.655 110.558,106.860 110.592,107.253 110.528 C 107.581 110.475,107.850 110.503,107.850 110.591 C 107.850 110.801,112.406 110.801,112.536 110.591 C 112.590 110.504,112.902 110.475,113.228 110.528 C 113.613 110.591,113.823 110.557,113.823 110.432 C 113.823 110.326,113.942 110.239,114.089 110.239 C 114.235 110.239,114.314 110.305,114.264 110.385 C 114.215 110.465,114.371 110.493,114.611 110.447 C 114.883 110.395,114.972 110.317,114.848 110.240 C 114.738 110.172,115.035 110.065,115.508 110.002 C 115.981 109.939,116.477 109.778,116.611 109.645 C 116.744 109.511,116.901 109.449,116.959 109.508 C 117.017 109.566,117.065 109.532,117.065 109.433 C 117.065 109.334,117.320 109.205,117.632 109.147 C 117.944 109.088,118.368 108.884,118.573 108.692 C 118.778 108.501,119.022 108.391,119.115 108.448 C 119.207 108.506,119.283 108.476,119.283 108.383 C 119.283 108.290,119.437 108.165,119.625 108.106 C 119.812 108.046,119.966 107.879,119.966 107.735 C 119.966 107.567,120.062 107.509,120.231 107.574 C 120.376 107.630,120.452 107.605,120.399 107.519 C 120.346 107.433,120.450 107.316,120.630 107.258 C 120.811 107.201,121.001 107.042,121.054 106.905 C 121.107 106.768,121.303 106.655,121.491 106.655 C 121.713 106.655,121.800 106.572,121.741 106.417 C 121.686 106.274,121.961 105.919,122.429 105.528 C 122.858 105.170,123.208 104.795,123.208 104.695 C 123.208 104.595,123.367 104.377,123.561 104.211 C 123.755 104.045,123.885 103.821,123.849 103.714 C 123.813 103.607,123.923 103.380,124.093 103.210 C 124.264 103.040,124.403 102.786,124.403 102.645 C 124.403 102.504,124.485 102.389,124.585 102.389 C 124.686 102.389,124.743 102.216,124.713 102.005 C 124.677 101.749,124.559 101.638,124.360 101.671 C 124.196 101.699,124.061 101.648,124.061 101.558 C 124.061 101.469,123.370 101.301,122.526 101.185 C 121.681 101.070,120.990 100.901,120.990 100.809 C 120.990 100.718,120.796 100.680,120.559 100.725 C 120.322 100.770,120.094 100.752,120.053 100.685 C 119.848 100.354,117.362 100.109,117.150 100.398 C 117.035 100.555,116.854 100.683,116.747 100.683 C 116.640 100.683,116.553 100.793,116.553 100.929 C 116.553 101.064,116.395 101.286,116.202 101.421 C 116.008 101.557,115.663 101.921,115.434 102.232 C 115.205 102.543,115.017 102.708,115.017 102.601 C 115.017 102.493,114.843 102.579,114.630 102.792 C 114.394 103.028,113.828 103.267,113.179 103.405 C 112.595 103.529,112.116 103.697,112.116 103.778 C 112.116 103.859,111.348 103.925,110.410 103.925 C 109.471 103.925,108.703 103.858,108.703 103.776 C 108.703 103.693,108.453 103.578,108.148 103.519 C 106.961 103.288,105.802 102.845,105.802 102.622 C 105.802 102.494,105.701 102.389,105.577 102.389 C 105.453 102.389,105.200 102.216,105.015 102.005 C 104.831 101.794,104.448 101.428,104.165 101.191 C 103.700 100.802,103.332 100.242,103.375 99.989 C 103.385 99.935,103.205 99.674,102.976 99.407 C 102.622 98.995,102.507 98.653,102.573 98.199 C 102.581 98.147,102.481 97.936,102.351 97.730 C 102.212 97.509,102.155 97.145,102.212 96.843 L 102.309 96.331 103.501 96.354 C 104.880 96.381,106.831 96.384,113.225 96.368 C 115.759 96.362,118.178 96.359,118.601 96.362 C 124.572 96.400,125.647 96.309,125.469 95.775 C 125.430 95.658,125.481 95.563,125.583 95.563 C 125.704 95.563,125.768 94.944,125.768 93.771 C 125.768 92.691,125.700 91.980,125.597 91.980 C 125.503 91.980,125.427 91.821,125.427 91.628 C 125.427 91.435,125.486 91.313,125.558 91.358 C 125.630 91.402,125.660 91.138,125.625 90.771 C 125.590 90.403,125.493 90.102,125.409 90.102 C 125.325 90.102,125.256 89.906,125.256 89.667 C 125.256 88.922,124.724 86.852,124.559 86.954 C 124.473 87.007,124.403 86.953,124.403 86.834 C 124.403 86.378,123.626 84.642,123.422 84.642 C 123.305 84.642,123.208 84.524,123.208 84.380 C 123.208 84.237,123.089 84.073,122.942 84.017 C 122.796 83.961,122.711 83.824,122.754 83.713 C 122.797 83.602,122.620 83.369,122.361 83.195 C 122.102 83.021,121.756 82.629,121.591 82.323 C 121.426 82.017,121.204 81.799,121.098 81.839 C 120.991 81.879,120.719 81.639,120.493 81.306 C 120.267 80.973,119.985 80.738,119.867 80.783 C 119.749 80.829,119.610 80.755,119.559 80.621 C 119.507 80.486,119.385 80.375,119.289 80.375 C 119.192 80.375,118.953 80.216,118.758 80.021 C 118.563 79.826,118.294 79.708,118.161 79.760 C 118.027 79.811,117.918 79.780,117.918 79.691 C 117.918 79.602,117.726 79.481,117.491 79.422 C 117.257 79.363,117.065 79.242,117.065 79.152 C 117.065 79.063,116.988 79.038,116.894 79.096 C 116.800 79.154,116.724 79.125,116.724 79.033 C 116.724 78.940,116.301 78.770,115.785 78.654 C 115.269 78.539,114.846 78.370,114.846 78.281 C 114.846 78.191,114.689 78.158,114.498 78.208 C 114.306 78.259,113.944 78.193,113.694 78.063 C 113.340 77.880,113.208 77.874,113.104 78.035 C 113.010 78.179,112.930 78.186,112.841 78.060 C 112.689 77.842,108.020 77.798,108.020 78.014 C 108.020 78.202,107.554 78.199,107.480 78.012 C 107.449 77.932,107.308 77.905,107.167 77.952 M158.191 77.983 C 158.191 78.083,157.883 78.108,157.423 78.045 C 156.911 77.975,156.655 78.003,156.655 78.130 C 156.655 78.251,156.463 78.281,156.117 78.211 C 155.732 78.134,155.613 78.160,155.700 78.301 C 155.776 78.423,155.702 78.498,155.507 78.498 C 154.955 78.498,153.224 79.005,152.995 79.233 C 152.874 79.354,152.458 79.557,152.070 79.685 C 151.683 79.813,151.365 79.987,151.365 80.072 C 151.365 80.156,151.293 80.180,151.205 80.126 C 151.117 80.071,150.983 80.125,150.906 80.244 C 150.830 80.364,150.557 80.570,150.299 80.703 C 150.041 80.836,149.829 81.031,149.829 81.135 C 149.829 81.239,149.484 81.630,149.063 82.002 C 148.641 82.374,148.296 82.775,148.295 82.892 C 148.294 83.010,148.212 83.106,148.113 83.106 C 148.013 83.106,147.975 83.175,148.026 83.259 C 148.078 83.343,148.021 83.450,147.899 83.496 C 147.777 83.543,147.573 83.897,147.446 84.282 C 147.319 84.668,147.159 84.983,147.090 84.983 C 146.935 84.983,146.750 85.428,146.645 86.051 C 146.568 86.511,146.943 87.130,147.164 86.909 C 147.222 86.851,147.270 86.880,147.270 86.975 C 147.270 87.069,148.038 87.248,148.976 87.372 C 149.915 87.496,150.683 87.672,150.683 87.763 C 150.683 87.857,150.941 87.887,151.280 87.832 C 151.645 87.772,151.877 87.804,151.877 87.914 C 151.877 88.017,152.099 88.061,152.397 88.017 C 152.682 87.975,152.956 88.005,153.004 88.083 C 153.192 88.388,153.934 88.224,154.099 87.841 C 154.367 87.222,154.665 86.812,155.114 86.441 C 155.346 86.250,155.651 85.959,155.791 85.795 C 155.932 85.631,156.299 85.414,156.607 85.312 C 156.915 85.210,157.167 85.067,157.167 84.993 C 157.167 84.920,157.371 84.898,157.619 84.946 C 157.904 85.000,158.031 84.967,157.963 84.857 C 157.812 84.613,160.173 84.410,161.444 84.558 C 162.001 84.622,162.457 84.753,162.457 84.848 C 162.457 84.946,162.640 84.974,162.884 84.913 C 163.119 84.854,163.311 84.875,163.311 84.959 C 163.311 85.043,163.560 85.211,163.865 85.332 C 164.342 85.520,165.375 86.454,165.961 87.226 C 166.295 87.665,166.553 88.865,166.553 89.976 L 166.553 91.089 165.956 91.159 C 165.627 91.197,165.286 91.156,165.197 91.067 C 164.966 90.836,154.909 90.818,154.832 91.049 C 154.800 91.147,154.513 91.197,154.196 91.160 C 153.879 91.123,153.362 91.209,153.047 91.350 C 152.732 91.491,152.014 91.743,151.451 91.910 C 150.887 92.077,150.388 92.257,150.341 92.310 C 150.294 92.363,149.899 92.581,149.462 92.794 C 149.026 93.007,148.625 93.295,148.572 93.434 C 148.518 93.572,148.363 93.686,148.225 93.686 C 148.088 93.686,147.798 93.935,147.582 94.238 C 147.366 94.542,147.055 94.924,146.892 95.087 C 146.729 95.250,146.547 95.578,146.488 95.815 C 146.428 96.052,146.306 96.246,146.217 96.246 C 146.128 96.246,146.098 96.316,146.151 96.402 C 146.204 96.488,146.167 96.585,146.067 96.618 C 145.379 96.848,145.055 103.500,145.721 103.722 C 145.812 103.752,145.840 103.894,145.785 104.038 C 145.729 104.183,145.791 104.369,145.922 104.451 C 146.122 104.578,146.119 104.604,145.904 104.610 C 145.704 104.616,145.715 104.656,145.951 104.794 C 146.117 104.891,146.212 105.037,146.161 105.118 C 146.111 105.200,146.152 105.318,146.253 105.380 C 146.407 105.475,146.774 106.178,146.830 106.485 C 146.868 106.690,148.711 108.362,148.900 108.362 C 149.016 108.362,149.154 108.476,149.207 108.615 C 149.263 108.759,149.418 108.825,149.567 108.767 C 149.738 108.701,149.829 108.765,149.829 108.951 C 149.829 109.107,149.901 109.191,149.990 109.136 C 150.078 109.082,150.218 109.159,150.301 109.307 C 150.386 109.459,150.690 109.584,150.994 109.593 C 151.292 109.601,151.536 109.670,151.536 109.745 C 151.536 109.821,151.804 109.932,152.132 109.994 C 152.479 110.059,152.682 110.179,152.618 110.283 C 152.547 110.398,152.671 110.419,152.975 110.342 C 153.314 110.257,153.407 110.281,153.316 110.429 C 153.223 110.579,153.375 110.607,153.899 110.537 C 154.289 110.485,154.608 110.512,154.608 110.596 C 154.608 110.681,155.491 110.751,156.570 110.751 C 157.780 110.751,158.532 110.685,158.532 110.578 C 158.532 110.472,158.796 110.448,159.215 110.515 C 159.665 110.587,159.898 110.560,159.898 110.436 C 159.898 110.315,160.092 110.286,160.436 110.355 C 160.778 110.424,160.936 110.400,160.869 110.291 C 160.807 110.192,161.170 110.022,161.727 109.889 C 162.257 109.761,162.809 109.519,162.953 109.351 C 163.098 109.182,163.310 109.044,163.425 109.044 C 163.541 109.044,163.703 108.922,163.787 108.773 C 163.870 108.624,163.989 108.509,164.051 108.517 C 164.387 108.563,164.492 108.502,164.585 108.210 C 164.641 108.032,165.046 107.607,165.484 107.265 C 165.923 106.924,166.400 106.391,166.545 106.081 C 166.823 105.486,167.287 104.949,167.522 104.949 C 167.599 104.949,167.643 106.021,167.620 107.332 C 167.584 109.390,167.613 109.702,167.833 109.618 C 167.974 109.564,168.089 109.598,168.089 109.694 C 168.089 109.956,173.994 109.942,174.415 109.680 C 174.771 109.458,174.947 88.859,174.597 88.473 C 174.516 88.384,174.352 87.716,174.232 86.989 C 174.112 86.262,173.910 85.582,173.783 85.477 C 173.657 85.372,173.595 85.217,173.647 85.134 C 173.698 85.051,173.667 84.983,173.578 84.983 C 173.489 84.983,173.368 84.791,173.309 84.556 C 173.250 84.322,173.122 84.130,173.024 84.130 C 172.927 84.130,172.898 84.048,172.960 83.947 C 173.071 83.767,172.888 83.526,171.971 82.646 C 171.713 82.399,171.540 82.157,171.587 82.110 C 171.709 81.988,171.148 81.399,170.910 81.399 C 170.801 81.399,170.541 81.167,170.331 80.883 C 170.121 80.598,169.886 80.405,169.809 80.452 C 169.733 80.499,169.530 80.384,169.360 80.195 C 169.189 80.006,168.948 79.890,168.825 79.937 C 168.702 79.985,168.601 79.951,168.601 79.862 C 168.601 79.682,167.219 78.970,167.100 79.089 C 167.058 79.130,166.922 79.062,166.797 78.937 C 166.672 78.812,166.219 78.658,165.790 78.593 C 165.300 78.520,165.052 78.408,165.124 78.293 C 165.201 78.168,165.041 78.147,164.615 78.226 C 164.262 78.293,163.993 78.275,163.993 78.185 C 163.993 77.952,163.164 77.833,163.082 78.054 C 163.033 78.186,162.944 78.178,162.786 78.029 C 162.507 77.766,158.191 77.723,158.191 77.983 M289.420 77.990 C 289.420 78.070,289.151 78.092,288.823 78.039 C 288.452 77.979,288.225 78.011,288.225 78.124 C 288.225 78.237,287.981 78.272,287.585 78.217 C 287.191 78.163,287.026 78.187,287.157 78.280 C 287.297 78.380,287.024 78.502,286.346 78.642 C 285.784 78.758,285.324 78.920,285.324 79.001 C 285.324 79.082,285.171 79.109,284.983 79.060 C 284.795 79.011,284.642 79.041,284.642 79.128 C 284.642 79.215,284.334 79.421,283.959 79.587 C 283.584 79.753,283.276 79.952,283.276 80.030 C 283.276 80.109,283.104 80.135,282.892 80.089 C 282.636 80.032,282.580 80.055,282.723 80.158 C 282.875 80.267,282.761 80.380,282.325 80.551 C 281.988 80.683,281.639 80.928,281.550 81.095 C 281.461 81.263,281.305 81.399,281.203 81.399 C 281.102 81.399,280.433 81.989,279.716 82.710 C 278.999 83.431,278.528 83.963,278.669 83.892 C 278.810 83.821,278.755 83.912,278.548 84.096 C 278.341 84.279,278.211 84.468,278.259 84.516 C 278.307 84.564,278.150 84.815,277.910 85.074 C 277.671 85.333,277.474 85.649,277.474 85.776 C 277.474 85.903,277.393 86.007,277.294 86.007 C 277.194 86.007,277.160 86.084,277.218 86.177 C 277.276 86.271,277.234 86.348,277.125 86.348 C 277.015 86.348,276.970 86.463,277.024 86.604 C 277.078 86.745,277.049 86.860,276.960 86.860 C 276.871 86.860,276.747 87.071,276.683 87.329 C 276.620 87.587,276.502 87.843,276.420 87.897 C 276.339 87.950,276.228 88.181,276.174 88.408 C 275.828 89.871,275.609 91.128,275.604 91.681 C 275.600 92.033,275.520 92.321,275.427 92.321 C 275.324 92.321,275.256 93.003,275.256 94.027 C 275.256 95.051,275.324 95.734,275.427 95.734 C 275.520 95.734,275.597 96.031,275.597 96.394 C 275.597 97.441,276.100 100.046,276.387 100.484 C 276.531 100.703,276.761 101.262,276.899 101.726 C 277.037 102.190,277.213 102.531,277.290 102.483 C 277.367 102.435,277.562 102.740,277.723 103.160 C 277.883 103.581,278.276 104.193,278.595 104.522 C 278.914 104.851,279.138 105.119,279.093 105.119 C 278.919 105.119,280.680 106.812,280.905 106.860 C 281.036 106.888,281.244 107.046,281.366 107.210 C 281.489 107.374,281.664 107.509,281.756 107.509 C 281.848 107.509,282.153 107.744,282.434 108.031 C 282.715 108.319,283.116 108.566,283.324 108.580 C 283.533 108.594,283.805 108.704,283.929 108.825 C 284.053 108.946,284.252 109.044,284.372 109.044 C 284.491 109.044,284.772 109.202,284.995 109.396 C 285.217 109.589,285.536 109.711,285.703 109.668 C 285.870 109.624,286.007 109.653,286.007 109.732 C 286.007 109.812,286.360 109.930,286.792 109.994 C 287.357 110.079,287.513 110.158,287.347 110.275 C 287.191 110.385,287.323 110.409,287.756 110.349 C 288.133 110.297,288.396 110.331,288.396 110.433 C 288.396 110.529,288.661 110.584,288.984 110.556 C 289.307 110.528,289.627 110.560,289.695 110.628 C 289.880 110.812,293.686 110.777,293.686 110.591 C 293.686 110.503,293.945 110.473,294.262 110.524 C 294.599 110.579,294.886 110.539,294.954 110.428 C 295.019 110.324,295.148 110.239,295.242 110.239 C 295.336 110.239,295.372 110.305,295.322 110.385 C 295.273 110.465,295.421 110.495,295.652 110.451 C 295.882 110.407,296.035 110.312,295.990 110.240 C 295.946 110.168,296.383 110.005,296.961 109.877 C 297.539 109.748,298.105 109.550,298.219 109.436 C 298.333 109.322,298.620 109.193,298.857 109.150 C 299.442 109.044,300.000 108.731,300.000 108.508 C 300.000 108.408,300.115 108.369,300.256 108.423 C 300.397 108.478,300.512 108.457,300.512 108.377 C 300.512 108.298,300.739 108.139,301.016 108.024 C 301.293 107.909,301.640 107.631,301.787 107.406 C 301.935 107.181,302.151 106.997,302.269 106.997 C 302.515 106.997,304.608 104.969,304.608 104.731 C 304.608 104.643,304.800 104.420,305.036 104.234 C 305.271 104.049,305.420 103.826,305.366 103.739 C 305.312 103.652,305.389 103.535,305.535 103.479 C 305.682 103.423,305.802 103.269,305.802 103.139 C 305.802 103.008,305.898 102.900,306.015 102.898 C 306.158 102.897,306.143 102.841,305.973 102.730 C 305.825 102.635,305.801 102.564,305.917 102.562 C 306.027 102.561,306.206 102.290,306.315 101.961 C 306.423 101.632,306.576 101.402,306.654 101.450 C 306.732 101.498,306.931 100.965,307.096 100.265 C 307.261 99.565,307.455 99.028,307.526 99.072 C 307.597 99.116,307.626 98.920,307.590 98.637 C 307.553 98.347,307.604 98.123,307.706 98.123 C 307.813 98.123,307.858 97.877,307.817 97.526 C 307.779 97.197,307.815 96.928,307.896 96.928 C 307.978 96.928,308.030 96.525,308.012 96.032 C 307.994 95.540,308.038 94.995,308.110 94.821 C 308.285 94.399,307.906 90.377,307.684 90.303 C 307.588 90.271,307.556 90.059,307.613 89.832 C 307.670 89.605,307.642 89.420,307.550 89.420 C 307.459 89.420,307.285 88.953,307.164 88.382 C 307.043 87.811,306.838 87.238,306.709 87.109 C 306.580 86.980,306.360 86.545,306.219 86.142 C 306.079 85.739,305.870 85.333,305.755 85.239 C 305.640 85.145,305.394 84.780,305.208 84.428 C 305.023 84.076,304.773 83.788,304.654 83.788 C 304.535 83.788,304.437 83.685,304.437 83.560 C 304.437 83.287,303.011 81.741,302.760 81.741 C 302.663 81.741,302.424 81.537,302.228 81.288 C 302.033 81.039,301.823 80.885,301.762 80.946 C 301.701 81.006,301.545 80.903,301.413 80.716 C 301.282 80.529,301.064 80.375,300.929 80.375 C 300.793 80.375,300.683 80.301,300.683 80.210 C 300.683 80.119,300.567 80.089,300.427 80.143 C 300.277 80.201,300.170 80.145,300.169 80.010 C 300.168 79.775,299.434 79.352,299.027 79.352 C 298.905 79.352,298.805 79.267,298.805 79.163 C 298.805 79.059,298.685 79.020,298.537 79.077 C 298.389 79.134,298.162 79.074,298.033 78.945 C 297.904 78.816,297.448 78.658,297.019 78.593 C 296.528 78.520,296.281 78.408,296.352 78.293 C 296.430 78.168,296.269 78.147,295.844 78.226 C 295.416 78.307,295.222 78.281,295.222 78.143 C 295.222 78.013,295.045 77.979,294.710 78.046 C 294.428 78.102,294.198 78.082,294.198 78.000 C 294.198 77.919,293.123 77.851,291.809 77.849 C 290.495 77.847,289.420 77.911,289.420 77.990 M131.613 78.865 C 131.445 79.033,131.399 82.774,131.397 96.408 C 131.396 113.148,131.357 115.117,131.036 114.918 C 130.954 114.868,130.876 114.984,130.862 115.178 C 130.848 115.371,130.828 115.625,130.819 115.742 C 130.810 115.860,130.533 116.142,130.205 116.369 C 129.876 116.597,129.561 116.852,129.504 116.936 C 129.337 117.186,128.155 117.398,126.909 117.402 C 125.001 117.409,125.085 117.247,125.085 120.916 C 125.085 123.766,125.114 124.083,125.384 124.182 C 125.548 124.243,125.738 124.375,125.805 124.476 C 125.891 124.604,126.032 124.595,126.272 124.445 C 126.505 124.301,127.406 124.231,129.051 124.229 C 131.515 124.225,133.634 123.929,133.753 123.571 C 133.788 123.465,133.911 123.379,134.027 123.379 C 134.409 123.379,135.623 122.712,135.725 122.446 C 135.780 122.302,135.929 122.184,136.056 122.184 C 136.363 122.184,136.986 121.454,136.900 121.195 C 136.862 121.082,136.953 120.990,137.102 120.990 C 137.250 120.990,137.372 120.913,137.372 120.819 C 137.372 120.725,137.506 120.512,137.671 120.345 C 138.025 119.984,138.567 118.868,138.567 118.499 C 138.567 118.356,138.643 118.287,138.737 118.345 C 138.833 118.404,138.922 118.241,138.941 117.971 C 138.959 117.707,138.988 117.299,139.005 117.065 C 139.021 116.830,139.102 116.485,139.185 116.297 C 139.366 115.883,139.360 79.065,139.179 78.882 C 138.941 78.644,131.850 78.627,131.613 78.865 M112.478 84.845 C 112.537 84.941,112.749 84.968,112.948 84.904 C 113.147 84.841,113.311 84.861,113.311 84.948 C 113.311 85.036,113.656 85.239,114.078 85.400 C 114.501 85.562,114.846 85.759,114.846 85.839 C 114.846 85.919,115.019 86.036,115.230 86.100 C 115.713 86.247,116.382 86.849,116.382 87.137 C 116.382 87.257,116.517 87.433,116.681 87.529 C 116.845 87.625,116.920 87.705,116.848 87.708 C 116.775 87.711,116.825 87.886,116.959 88.097 C 117.093 88.308,117.254 88.730,117.317 89.034 C 117.381 89.338,117.488 89.621,117.557 89.663 C 117.625 89.706,117.649 90.014,117.610 90.348 L 117.539 90.956 109.889 90.956 C 102.538 90.956,101.497 90.889,102.183 90.466 C 102.281 90.405,102.416 90.125,102.483 89.845 C 102.549 89.564,102.746 89.097,102.921 88.806 C 103.095 88.515,103.189 88.229,103.130 88.170 C 103.071 88.111,103.149 88.014,103.303 87.955 C 103.457 87.896,103.584 87.752,103.584 87.636 C 103.584 87.196,104.516 86.438,105.503 86.076 C 105.668 86.016,105.802 85.870,105.802 85.751 C 105.802 85.633,106.166 85.444,106.610 85.332 C 107.055 85.220,107.476 85.038,107.546 84.928 C 107.641 84.779,107.675 84.778,107.677 84.924 C 107.678 85.037,107.825 85.083,108.020 85.032 C 108.208 84.983,108.362 84.880,108.362 84.802 C 108.362 84.457,112.263 84.498,112.478 84.845 M292.150 85.000 C 292.150 85.118,292.436 85.165,292.918 85.127 C 293.340 85.093,293.686 85.124,293.686 85.195 C 293.686 85.266,293.836 85.324,294.019 85.324 C 294.423 85.324,295.220 85.663,295.542 85.972 C 295.672 86.096,295.873 86.160,295.990 86.116 C 296.107 86.071,296.299 86.214,296.416 86.433 C 296.538 86.661,296.731 86.794,296.865 86.743 C 296.993 86.693,297.099 86.722,297.099 86.806 C 297.099 86.890,297.467 87.350,297.916 87.829 C 298.365 88.307,298.709 88.770,298.680 88.858 C 298.651 88.945,298.767 89.179,298.939 89.377 C 299.111 89.575,299.357 90.242,299.486 90.859 C 299.614 91.475,299.767 91.980,299.825 91.980 C 299.884 91.980,299.901 92.239,299.864 92.557 C 299.827 92.874,299.881 93.186,299.984 93.249 C 300.210 93.389,300.233 95.108,300.014 95.523 C 299.928 95.686,299.727 96.487,299.568 97.304 C 299.344 98.449,299.165 98.915,298.785 99.340 C 298.515 99.643,298.294 99.954,298.294 100.032 C 298.294 100.231,296.773 101.706,296.567 101.706 C 296.473 101.706,296.434 101.768,296.481 101.844 C 296.528 101.919,296.226 102.130,295.810 102.313 C 295.394 102.496,295.054 102.697,295.053 102.760 C 295.049 103.010,293.729 103.287,292.045 103.392 C 291.071 103.452,290.273 103.461,290.273 103.412 C 290.273 103.363,289.887 103.231,289.415 103.119 C 288.943 103.007,288.438 102.797,288.293 102.652 C 288.149 102.507,287.926 102.389,287.800 102.389 C 287.673 102.389,287.333 102.190,287.044 101.947 C 286.755 101.704,286.519 101.563,286.519 101.632 C 286.519 101.702,286.362 101.618,286.171 101.445 C 285.974 101.266,285.867 101.018,285.925 100.869 C 285.980 100.725,285.972 100.660,285.908 100.725 C 285.776 100.857,285.154 100.132,285.154 99.845 C 285.154 99.743,285.038 99.659,284.898 99.659 C 284.675 99.659,284.556 99.347,284.621 98.933 C 284.633 98.863,284.521 98.805,284.374 98.805 C 284.182 98.805,284.138 98.707,284.218 98.456 C 284.284 98.248,284.214 97.931,284.044 97.672 C 283.650 97.071,283.413 94.361,283.617 92.791 C 283.705 92.110,283.780 91.414,283.783 91.244 C 283.786 91.074,283.865 90.983,283.959 91.041 C 284.053 91.099,284.135 91.046,284.142 90.923 C 284.174 90.366,284.330 89.827,284.561 89.474 C 284.699 89.263,284.812 88.981,284.812 88.847 C 284.812 88.713,284.927 88.559,285.068 88.505 C 285.209 88.451,285.324 88.320,285.324 88.214 C 285.324 87.946,286.547 86.869,286.860 86.861 C 287.043 86.857,287.058 86.818,286.911 86.725 C 286.776 86.639,286.893 86.515,287.253 86.361 C 287.553 86.233,287.919 86.024,288.067 85.898 C 288.426 85.589,289.883 85.158,290.572 85.155 C 290.877 85.154,291.126 85.077,291.126 84.983 C 291.126 84.889,291.357 84.812,291.638 84.812 C 291.920 84.812,292.150 84.897,292.150 85.000 M158.532 96.374 C 158.532 96.495,164.614 96.488,165.849 96.366 L 166.424 96.309 166.324 97.672 C 166.268 98.421,166.134 99.089,166.025 99.157 C 165.916 99.224,165.880 99.365,165.945 99.470 C 166.010 99.575,165.943 99.781,165.796 99.928 C 165.649 100.075,165.529 100.305,165.529 100.439 C 165.529 100.573,165.452 100.683,165.358 100.683 C 165.265 100.683,165.188 100.798,165.188 100.939 C 165.188 101.079,165.109 101.195,165.013 101.195 C 164.917 101.195,164.764 101.388,164.675 101.624 C 164.585 101.861,164.323 102.126,164.092 102.213 C 163.861 102.301,163.588 102.530,163.486 102.722 C 163.383 102.914,163.205 103.074,163.091 103.077 C 162.977 103.080,162.500 103.273,162.031 103.507 C 161.561 103.741,160.851 103.979,160.452 104.037 C 160.053 104.095,159.727 104.189,159.727 104.247 C 159.727 104.304,159.266 104.352,158.703 104.352 C 158.140 104.352,157.679 104.304,157.679 104.246 C 157.679 104.188,157.324 104.100,156.890 104.051 C 156.456 104.002,156.053 103.893,155.994 103.810 C 155.935 103.726,155.489 103.471,155.003 103.244 C 154.516 103.017,154.154 102.773,154.198 102.702 C 154.286 102.560,153.969 101.945,153.606 101.552 C 153.280 101.201,153.436 99.081,153.817 98.659 C 153.971 98.490,154.048 98.303,153.989 98.244 C 153.876 98.131,154.960 97.144,155.090 97.242 C 155.132 97.273,155.219 97.214,155.284 97.110 C 155.348 97.005,155.568 96.888,155.773 96.849 C 155.977 96.809,156.240 96.718,156.357 96.646 C 156.474 96.573,156.773 96.536,157.022 96.562 C 157.271 96.588,157.525 96.527,157.587 96.427 C 157.714 96.223,158.533 96.176,158.532 96.374 " stroke="none" fill="#fbfbfb" fill-rule="evenodd"></path><path id="path3" d="M258.493 77.769 C 258.800 77.807,259.260 77.806,259.517 77.767 C 259.773 77.728,259.522 77.697,258.959 77.698 C 258.396 77.699,258.186 77.731,258.493 77.769 M291.428 77.769 C 291.735 77.807,292.195 77.806,292.452 77.767 C 292.708 77.728,292.457 77.697,291.894 77.698 C 291.331 77.699,291.121 77.731,291.428 77.769 M102.944 96.541 C 103.296 96.578,103.872 96.578,104.224 96.541 C 104.576 96.504,104.288 96.474,103.584 96.474 C 102.880 96.474,102.592 96.504,102.944 96.541 M108.404 96.539 C 108.663 96.578,109.085 96.578,109.343 96.539 C 109.601 96.500,109.390 96.468,108.874 96.468 C 108.358 96.468,108.146 96.500,108.404 96.539 M112.169 96.544 C 113.371 96.573,115.291 96.573,116.435 96.544 C 117.579 96.514,116.596 96.490,114.249 96.490 C 111.903 96.490,110.967 96.515,112.169 96.544 M119.667 96.539 C 119.925 96.578,120.348 96.578,120.606 96.539 C 120.864 96.500,120.653 96.468,120.137 96.468 C 119.620 96.468,119.409 96.500,119.667 96.539 M124.275 96.534 C 124.439 96.577,124.708 96.577,124.872 96.534 C 125.036 96.491,124.902 96.456,124.573 96.456 C 124.245 96.456,124.110 96.491,124.275 96.534 M160.284 96.539 C 160.543 96.578,160.927 96.577,161.137 96.537 C 161.347 96.496,161.135 96.464,160.666 96.465 C 160.196 96.466,160.025 96.500,160.284 96.539 M270.651 101.077 C 270.649 101.581,270.714 101.857,270.819 101.792 C 271.036 101.658,271.036 100.848,270.819 100.512 C 270.700 100.327,270.653 100.484,270.651 101.077 " stroke="none" fill="#d4d5e1" fill-rule="evenodd"></path><path id="path4" d="M248.294 64.814 C 248.294 64.906,248.415 65.027,248.564 65.084 C 248.730 65.148,248.808 65.110,248.766 64.985 C 248.681 64.730,248.294 64.590,248.294 64.814 M179.863 65.017 C 179.863 65.111,179.979 65.188,180.119 65.188 C 180.260 65.188,180.375 65.111,180.375 65.017 C 180.375 64.923,180.260 64.846,180.119 64.846 C 179.979 64.846,179.863 64.923,179.863 65.017 M202.986 65.017 C 203.052 65.123,204.638 65.188,207.177 65.188 C 209.787 65.188,211.263 65.126,211.263 65.017 C 211.263 64.908,209.752 64.846,207.072 64.846 C 204.321 64.846,202.917 64.905,202.986 65.017 M175.985 65.858 C 175.998 66.040,176.070 66.150,176.145 66.104 C 176.334 65.987,176.314 65.529,176.120 65.529 C 176.032 65.529,175.971 65.677,175.985 65.858 M139.538 71.170 C 139.463 71.458,139.490 71.485,139.689 71.320 C 139.961 71.095,140.011 70.819,139.781 70.819 C 139.698 70.819,139.589 70.977,139.538 71.170 M77.678 76.440 C 77.909 76.810,78.157 76.906,78.157 76.627 C 78.157 76.537,78.000 76.378,77.808 76.276 C 77.485 76.103,77.476 76.116,77.678 76.440 M109.642 77.816 C 109.577 77.921,109.871 77.986,110.410 77.986 C 110.948 77.986,111.243 77.921,111.177 77.816 C 111.119 77.722,110.774 77.645,110.410 77.645 C 110.045 77.645,109.700 77.722,109.642 77.816 M263.993 78.868 C 263.993 78.978,264.044 79.017,264.105 78.955 C 264.167 78.893,264.321 78.928,264.447 79.033 C 264.591 79.152,264.676 79.158,264.676 79.049 C 264.676 78.954,264.554 78.829,264.406 78.773 C 264.035 78.630,263.993 78.640,263.993 78.868 M139.302 81.143 C 139.303 81.706,139.335 81.916,139.373 81.610 C 139.411 81.303,139.410 80.842,139.371 80.586 C 139.332 80.329,139.301 80.580,139.302 81.143 M149.002 81.844 C 148.875 81.987,148.805 82.138,148.846 82.180 C 148.888 82.221,149.061 82.101,149.231 81.912 C 149.402 81.724,149.471 81.573,149.387 81.576 C 149.302 81.580,149.128 81.700,149.002 81.844 M171.758 82.423 C 171.928 82.611,172.096 82.765,172.131 82.765 C 172.167 82.765,172.114 82.611,172.014 82.423 C 171.913 82.235,171.745 82.082,171.640 82.082 C 171.535 82.082,171.588 82.235,171.758 82.423 M121.680 82.338 C 121.676 82.591,121.981 83.025,122.088 82.918 C 122.139 82.867,122.069 82.677,121.932 82.496 C 121.795 82.315,121.682 82.244,121.680 82.338 M110.196 84.591 C 110.407 84.632,110.753 84.632,110.964 84.591 C 111.175 84.551,111.003 84.517,110.580 84.517 C 110.158 84.517,109.985 84.551,110.196 84.591 M139.314 86.775 C 139.315 87.901,139.342 88.340,139.376 87.749 C 139.409 87.159,139.409 86.238,139.375 85.702 C 139.341 85.166,139.314 85.648,139.314 86.775 M291.126 84.983 C 291.126 85.077,291.357 85.154,291.638 85.154 C 291.920 85.154,292.150 85.077,292.150 84.983 C 292.150 84.889,291.920 84.812,291.638 84.812 C 291.357 84.812,291.126 84.889,291.126 84.983 M104.008 86.963 C 103.763 87.208,103.602 87.447,103.649 87.494 C 103.726 87.571,104.608 86.729,104.608 86.579 C 104.608 86.431,104.420 86.551,104.008 86.963 M146.587 86.842 C 146.587 86.926,146.708 87.041,146.857 87.098 C 147.224 87.239,147.270 87.230,147.270 87.021 C 147.270 86.921,147.193 86.887,147.099 86.945 C 147.005 87.003,146.928 86.970,146.928 86.870 C 146.928 86.771,146.852 86.689,146.758 86.689 C 146.664 86.689,146.587 86.758,146.587 86.842 M81.570 87.969 C 81.570 88.679,81.633 89.059,81.741 88.993 C 81.834 88.935,81.911 88.474,81.911 87.969 C 81.911 87.464,81.834 87.003,81.741 86.945 C 81.633 86.879,81.570 87.260,81.570 87.969 M270.651 94.923 C 270.653 98.071,270.721 100.361,270.819 100.512 C 270.928 100.680,270.985 98.851,270.987 95.179 C 270.989 91.565,270.929 89.590,270.819 89.590 C 270.709 89.590,270.649 91.480,270.651 94.923 M139.316 92.406 C 139.317 93.720,139.344 94.235,139.376 93.551 C 139.408 92.866,139.408 91.791,139.376 91.161 C 139.343 90.532,139.316 91.092,139.316 92.406 M125.429 91.596 C 125.428 91.807,125.503 91.980,125.597 91.980 C 125.811 91.980,125.811 91.798,125.597 91.468 C 125.464 91.261,125.431 91.285,125.429 91.596 M283.490 94.113 C 283.492 94.488,283.527 94.622,283.568 94.409 C 283.609 94.197,283.607 93.890,283.564 93.727 C 283.522 93.564,283.488 93.737,283.490 94.113 M248.884 101.451 C 248.884 105.768,248.906 107.510,248.933 105.321 C 248.960 103.132,248.960 99.600,248.933 97.471 C 248.906 95.342,248.884 97.133,248.884 101.451 M102.330 96.374 C 102.287 96.444,102.608 96.479,103.045 96.452 C 104.399 96.367,104.569 96.293,103.466 96.269 C 102.885 96.256,102.374 96.303,102.330 96.374 M109.300 96.418 C 109.676 96.491,110.098 96.485,110.239 96.404 C 110.404 96.309,110.161 96.261,109.556 96.271 C 108.625 96.285,108.623 96.286,109.300 96.418 M115.401 96.371 C 115.847 96.406,116.576 96.406,117.022 96.371 C 117.468 96.336,117.103 96.307,116.212 96.307 C 115.320 96.307,114.955 96.336,115.401 96.371 M120.392 96.424 C 121.470 96.592,123.815 96.588,124.488 96.416 C 124.785 96.341,123.854 96.287,122.270 96.289 C 120.342 96.291,119.790 96.330,120.392 96.424 M157.594 96.416 C 157.468 96.620,157.802 96.620,158.276 96.416 C 158.581 96.285,158.569 96.268,158.159 96.258 C 157.906 96.251,157.652 96.323,157.594 96.416 M139.296 97.611 C 139.296 98.033,139.329 98.206,139.370 97.995 C 139.410 97.784,139.410 97.438,139.370 97.227 C 139.329 97.016,139.296 97.189,139.296 97.611 M299.019 98.730 C 298.767 99.003,298.746 99.147,298.958 99.147 C 299.103 99.147,299.376 98.633,299.279 98.542 C 299.253 98.518,299.136 98.603,299.019 98.730 M145.051 100.683 C 145.051 102.018,145.301 102.017,145.326 100.682 C 145.336 100.119,145.279 99.659,145.198 99.659 C 145.117 99.659,145.051 100.119,145.051 100.683 M139.296 101.195 C 139.296 101.617,139.329 101.790,139.370 101.578 C 139.410 101.367,139.410 101.022,139.370 100.811 C 139.329 100.599,139.296 100.772,139.296 101.195 M285.804 100.953 C 286.024 101.377,286.519 101.816,286.519 101.586 C 286.519 101.497,286.316 101.239,286.069 101.011 C 285.668 100.642,285.639 100.636,285.804 100.953 M270.762 101.820 C 270.572 102.010,270.628 109.215,270.819 109.215 C 270.928 109.215,270.990 107.850,270.990 105.461 C 270.990 103.396,270.964 101.706,270.933 101.706 C 270.902 101.706,270.825 101.758,270.762 101.820 M83.659 104.001 C 83.386 104.231,83.163 104.541,83.163 104.690 C 83.163 104.838,83.208 104.900,83.264 104.827 C 83.319 104.753,83.589 104.443,83.864 104.138 C 84.456 103.482,84.356 103.415,83.659 104.001 M167.422 105.247 C 167.548 105.412,167.673 105.578,167.699 105.617 C 167.726 105.656,167.747 105.522,167.747 105.319 C 167.747 105.091,167.641 104.949,167.471 104.949 C 167.234 104.949,167.227 104.992,167.422 105.247 M121.955 105.943 C 121.644 106.287,121.575 106.565,121.842 106.400 C 122.020 106.290,122.414 105.631,122.302 105.631 C 122.266 105.631,122.110 105.772,121.955 105.943 M283.447 108.685 C 283.447 108.769,283.569 108.884,283.717 108.941 C 284.135 109.101,284.176 109.066,283.898 108.788 C 283.608 108.498,283.447 108.461,283.447 108.685 M66.041 109.898 L 62.031 109.992 65.988 110.030 C 68.484 110.054,69.985 110.005,70.051 109.898 C 70.109 109.804,70.133 109.744,70.104 109.765 C 70.075 109.786,68.247 109.845,66.041 109.898 M168.542 109.940 C 168.585 110.011,169.768 110.068,171.170 110.068 C 172.573 110.068,173.720 110.011,173.720 109.940 C 173.720 109.870,172.537 109.812,171.091 109.812 C 169.645 109.812,168.498 109.870,168.542 109.940 M266.724 109.898 L 263.567 109.995 266.671 110.031 C 268.597 110.054,269.815 110.003,269.881 109.898 C 269.939 109.804,269.962 109.744,269.933 109.764 C 269.904 109.784,268.460 109.844,266.724 109.898 M54.660 110.025 C 55.957 110.054,58.030 110.054,59.268 110.025 C 60.506 109.996,59.445 109.972,56.911 109.972 C 54.377 109.972,53.364 109.996,54.660 110.025 M191.435 110.025 C 192.590 110.055,194.433 110.055,195.530 110.025 C 196.628 109.995,195.683 109.971,193.430 109.971 C 191.177 109.971,190.280 109.996,191.435 110.025 M218.824 110.025 C 220.026 110.055,221.946 110.054,223.090 110.025 C 224.234 109.996,223.251 109.971,220.904 109.972 C 218.558 109.972,217.622 109.996,218.824 110.025 M244.078 110.025 C 244.904 110.056,246.210 110.056,246.979 110.024 C 247.749 109.993,247.073 109.967,245.478 109.967 C 243.882 109.968,243.252 109.993,244.078 110.025 M158.532 110.580 C 158.532 110.674,158.648 110.751,158.788 110.751 C 158.929 110.751,159.044 110.674,159.044 110.580 C 159.044 110.486,158.929 110.410,158.788 110.410 C 158.648 110.410,158.532 110.486,158.532 110.580 M126.365 124.403 C 126.298 124.512,126.872 124.573,127.966 124.573 C 128.920 124.573,129.719 124.498,129.778 124.403 C 129.846 124.293,129.271 124.232,128.177 124.232 C 127.224 124.232,126.424 124.307,126.365 124.403 " stroke="none" fill="#dcdce7" fill-rule="evenodd"></path></g></svg>